<svg width="177" height="86" viewBox="0 0 177 86" fill="none" xmlns="http://www.w3.org/2000/svg">
<mask id="mask0_1_639" style="mask-type:luminance" maskUnits="userSpaceOnUse" x="0" y="0" width="177" height="86">
<path d="M176.477 0H0.891602V86H176.477V0Z" fill="white"/>
</mask>
<g mask="url(#mask0_1_639)">
<path d="M48.1259 40.1107C48.1259 38.5805 48.3824 37.1721 48.8922 35.8855C49.402 34.602 50.1245 33.4965 51.0565 32.5753C51.9885 31.654 53.102 30.9327 54.3969 30.4143C55.6918 29.8959 57.1305 29.6367 58.7162 29.6367C60.0518 29.6367 61.3466 29.8178 62.6009 30.18C63.8551 30.5424 65.0405 31.1201 66.1633 31.9101L65.175 35.6169L64.9279 35.5669C64.7121 34.7613 64.44 34.0055 64.1115 33.3061C63.7801 32.6066 63.3766 32.0007 62.898 31.4917C62.4194 30.9827 61.8596 30.5829 61.2153 30.2925C60.571 30.0052 59.8297 29.8615 58.9884 29.8615C57.6528 29.8615 56.5019 30.1582 55.5354 30.7515C54.569 31.3449 53.7777 32.1256 53.1615 33.1C52.5422 34.0711 52.0887 35.1953 51.8009 36.4726C51.5132 37.7498 51.3693 39.0615 51.3693 40.4137C51.3693 41.7658 51.5351 42.9462 51.8635 44.158C52.1919 45.3696 52.6798 46.447 53.3241 47.3932C53.9684 48.3394 54.7629 49.0982 55.7106 49.6666C56.6582 50.2349 57.7592 50.5191 59.0134 50.5191C59.9048 50.5191 60.7086 50.3474 61.4248 50.0008C62.1411 49.6541 62.7635 49.1888 63.2921 48.6048C63.8207 48.0209 64.2585 47.3401 64.6026 46.5657C64.9498 45.7912 65.1969 44.9699 65.3439 44.0955L65.591 44.0455L66.6794 47.974C65.4909 48.9296 64.2429 49.6292 62.9293 50.0726C61.6188 50.516 60.1863 50.7408 58.6349 50.7408C57.168 50.7408 55.7981 50.4911 54.5283 49.9883C53.2584 49.4855 52.145 48.7735 51.1879 47.8523C50.2309 46.931 49.4802 45.813 48.936 44.5045C48.3918 43.1961 48.1196 41.7346 48.1196 40.1201L48.1259 40.1107Z" fill="black"/>
<path d="M76.7788 50.7341C75.4089 50.7341 74.2141 50.4968 73.1913 50.019C72.1686 49.5412 71.3054 48.9072 70.6048 48.1172C69.9041 47.3271 69.3756 46.4277 69.0222 45.4253C68.6687 44.4197 68.4873 43.3923 68.4779 42.3368C68.4685 41.2844 68.6343 40.2538 68.9721 39.2483C69.3099 38.2428 69.8291 37.3465 70.5297 36.5564C71.2303 35.7663 72.106 35.1324 73.1538 34.6546C74.2016 34.1768 75.4339 33.9395 76.8539 33.9395C77.8109 33.9395 78.6961 34.0644 79.5124 34.311C80.3288 34.5578 81.0669 34.9044 81.7269 35.3479C82.3868 35.7913 82.956 36.3222 83.4346 36.9405C83.9131 37.5588 84.301 38.2365 84.5981 38.9797C84.401 39.0141 84.0945 39.0671 83.6816 39.139C83.2688 39.2139 82.7871 39.2983 82.2336 39.3982C81.6799 39.4982 81.0669 39.6043 80.3913 39.7199C79.7157 39.8354 79.0151 39.9603 78.2895 40.0915C79.3779 40.1071 80.3132 40.2694 81.0982 40.5724C81.8801 40.8784 82.5244 41.2656 83.028 41.7341C83.5315 42.2025 83.8943 42.7396 84.1164 43.3392C84.3384 43.9419 84.4292 44.5509 84.3885 45.166C84.3478 45.7844 84.1821 46.3934 83.8943 46.9929C83.6066 47.5957 83.1968 48.1265 82.6683 48.5856C81.927 49.2445 81.0669 49.7691 80.0942 50.1533C79.1215 50.5405 78.0142 50.7341 76.7788 50.7341ZM71.7807 41.2469C71.7151 42.2524 71.7464 43.2924 71.8809 44.3729C72.0122 45.4502 72.278 46.4402 72.6722 47.3365C73.0694 48.2359 73.6042 48.9759 74.2798 49.5599C74.9554 50.1439 75.8155 50.4468 76.8539 50.4624C78.0424 50.4468 79.1027 50.2532 80.0348 49.8816C80.9668 49.51 81.7862 49.0135 82.4962 48.3857C83.3032 47.6613 83.8161 46.8119 84.0288 45.8406C84.2415 44.8694 84.1351 43.9481 83.7066 43.0738C83.444 42.546 83.1124 42.1088 82.7183 41.7653C82.3211 41.4187 81.8801 41.1439 81.3953 40.9378C80.9074 40.7317 80.3851 40.588 79.8252 40.5068C79.2654 40.4256 78.6961 40.3819 78.1175 40.3819C77.5389 40.3819 76.9352 40.4162 76.3472 40.4818C75.7624 40.5474 75.193 40.6254 74.6395 40.7161C74.0859 40.8066 73.5667 40.9003 73.0819 41.0002C72.594 41.1001 72.1624 41.1813 71.7839 41.2469H71.7807ZM71.7807 40.9752C72.3594 40.8753 72.9724 40.7691 73.6229 40.6536C74.2736 40.538 74.946 40.4162 75.6404 40.282C76.7131 40.1008 77.7734 39.9165 78.8212 39.7261C79.8689 39.5356 80.8198 39.367 81.6799 39.2202C81.5486 38.5768 81.3609 37.9555 81.1232 37.3558C80.8855 36.7563 80.5696 36.2191 80.1818 35.7507C79.7939 35.2823 79.3248 34.9076 78.7712 34.6265C78.2176 34.3454 77.5701 34.208 76.8289 34.208C75.9062 34.208 75.1337 34.4173 74.5144 34.8389C73.8951 35.2573 73.3915 35.7975 73.0037 36.4565C72.6158 37.1154 72.3281 37.843 72.1373 38.6424C71.9465 39.4419 71.8277 40.2195 71.7776 40.9783L71.7807 40.9752Z" fill="black"/>
<path d="M86.3809 50.4628C87.1878 50.4628 87.7133 50.2536 87.951 49.8321C88.1886 49.4136 88.3169 48.7577 88.3356 47.8678V37.4406C88.3356 36.9316 88.3325 36.4756 88.3231 36.0822C88.3138 35.6855 88.2637 35.3545 88.1761 35.0828C88.0855 34.8112 87.9322 34.6019 87.7195 34.452C87.5037 34.3053 87.1909 34.2146 86.7781 34.1803V33.9336C87.1252 33.9024 87.5068 33.8524 87.9291 33.7868C88.3482 33.7212 88.7705 33.6401 89.1896 33.5402C89.6086 33.4402 90.0277 33.3309 90.4406 33.206C90.8535 33.0811 91.2225 32.9468 91.5541 32.7969V39.6391C91.6541 38.8333 91.8731 38.0652 92.2109 37.3406C92.5487 36.6161 93.0178 35.9915 93.6215 35.4638C94.222 34.936 94.957 34.5332 95.8231 34.2522C96.6901 33.9711 97.7067 33.8649 98.8794 33.9305L98.8293 37.1408C98.4507 37.0595 98.0692 36.9971 97.6906 36.9565C97.312 36.9159 96.94 36.8941 96.5775 36.8941C95.8515 36.8941 95.1823 36.9846 94.5723 37.1658C93.9624 37.3468 93.4338 37.6185 92.9897 37.9808C92.5456 38.343 92.1921 38.8053 91.9388 39.3643C91.6823 39.9233 91.5541 40.5821 91.5541 41.341V48.0114C91.5697 48.8515 91.7073 49.4697 91.9638 49.8633C92.2202 50.2599 92.7332 50.4566 93.5088 50.4566V50.7033C92.6832 50.6689 92.0169 50.6408 91.504 50.6159C90.9911 50.5909 90.5157 50.5784 90.0684 50.5784C89.5899 50.5784 89.0957 50.5909 88.5828 50.6159C88.0698 50.6408 87.388 50.6689 86.5279 50.7033H86.3809V50.4566V50.4628Z" fill="black"/>
<path d="M97.4653 45.8424C97.4653 45.0024 97.6499 44.2935 98.0219 43.7189C98.3948 43.1412 98.8728 42.6665 99.4578 42.2855C100.043 41.9076 100.7 41.6047 101.425 41.383C102.151 41.1613 102.867 40.9832 103.577 40.8521H103.602C102.842 40.7053 102.225 40.4306 101.747 40.037C101.268 39.6404 100.928 39.1845 100.721 38.6661C100.515 38.1477 100.45 37.6075 100.524 37.0485C100.599 36.4895 100.806 35.9774 101.144 35.5151C101.481 35.053 101.957 34.672 102.567 34.3659C103.177 34.0631 103.908 33.9101 104.766 33.9101C105.754 33.9101 106.689 34.0006 107.577 34.1817C108.466 34.3628 109.251 34.6595 109.932 35.0717C110.614 35.4839 111.178 36.0179 111.622 36.6769C112.065 37.3358 112.344 38.1414 112.459 39.0971C111.938 39.2782 111.415 39.4312 110.902 39.553C110.386 39.6779 109.876 39.7872 109.37 39.8871C109.32 39.0627 109.21 38.307 109.035 37.6137C108.86 36.9204 108.594 36.324 108.231 35.8212C107.869 35.3184 107.402 34.9249 106.833 34.6345C106.263 34.3472 105.56 34.1942 104.719 34.1785C103.73 34.1942 102.917 34.4128 102.282 34.8344C101.647 35.2528 101.213 35.7775 100.985 36.4021C100.818 36.8299 100.75 37.264 100.774 37.698C100.8 38.1352 100.918 38.5412 101.134 38.9222C101.347 39.3001 101.65 39.6342 102.038 39.9215C102.426 40.2088 102.901 40.4211 103.462 40.5523C104.383 40.7833 105.472 40.874 106.726 40.824C107.568 40.7897 108.488 40.6835 109.485 40.5024C110.483 40.3212 111.502 40.0589 112.541 39.7122C113.498 39.4 114.437 39.019 115.362 38.5755C116.285 38.1321 117.145 37.6106 117.936 37.0203C118.727 36.427 119.438 35.74 120.063 34.9561C120.688 34.1754 121.192 33.2886 121.573 32.3018V39.8871C121.721 39.1127 121.937 38.3663 122.218 37.6511C122.5 36.936 122.856 36.3052 123.294 35.7619C123.732 35.2185 124.251 34.7782 124.851 34.4409C125.452 34.1036 126.143 33.9256 126.919 33.9101C128.042 33.8601 129.065 33.9912 129.987 34.3066C130.91 34.6189 131.713 35.0717 132.399 35.665C133.084 36.2584 133.643 36.986 134.082 37.851C134.519 38.716 134.82 39.6748 134.986 40.7303C135.085 39.8747 135.267 39.0409 135.53 38.2352C135.792 37.4294 136.149 36.7081 136.593 36.0741C137.037 35.4402 137.585 34.9312 138.226 34.5439C138.87 34.1567 139.611 33.9475 140.453 33.9132C141.722 33.8632 142.861 34.0318 143.868 34.4191C144.875 34.8063 145.729 35.3746 146.43 36.1241C147.13 36.8736 147.671 37.7823 148.049 38.8534C148.428 39.9246 148.634 41.1113 148.669 42.4104V47.8691C148.685 48.7435 148.813 49.39 149.054 49.8084C149.291 50.23 149.817 50.4393 150.624 50.4393V50.6859C150.045 50.6547 149.473 50.6297 148.903 50.611C148.334 50.5954 147.787 50.586 147.258 50.586C146.73 50.586 146.239 50.5891 145.785 50.5985C145.332 50.6079 144.941 50.6203 144.609 50.6359C144.212 50.6516 143.858 50.6703 143.546 50.6859V50.4393C143.99 50.4393 144.34 50.3893 144.597 50.2925C144.853 50.1925 145.047 50.0426 145.179 49.8365C145.31 49.6304 145.397 49.3618 145.438 49.034C145.479 48.706 145.5 48.3188 145.5 47.8722V42.6852C145.5 41.5829 145.426 40.5117 145.279 39.4749C145.131 38.4381 144.865 37.52 144.488 36.7206C144.109 35.9211 143.592 35.2934 142.939 34.8313C142.289 34.3691 141.45 34.1474 140.427 34.163C139.455 34.1974 138.633 34.494 137.966 35.053C137.297 35.612 136.753 36.3083 136.333 37.139C135.911 37.9697 135.607 38.8597 135.417 39.806C135.226 40.7522 135.132 41.6203 135.132 42.4136V47.8722C135.148 48.7467 135.276 49.3931 135.517 49.8116C135.755 50.2331 136.28 50.4424 137.087 50.4424V50.689C136.509 50.6578 135.936 50.6328 135.367 50.6141C134.797 50.5985 134.25 50.5891 133.722 50.5891C133.193 50.5891 132.703 50.5923 132.248 50.6016C131.795 50.611 131.404 50.6234 131.073 50.6391C130.675 50.6547 130.322 50.6734 130.009 50.689V50.4424C130.454 50.4424 130.804 50.3924 131.06 50.2956C131.317 50.1956 131.511 50.0457 131.641 49.8396C131.773 49.6335 131.861 49.365 131.902 49.0371C131.942 48.7091 131.964 48.322 131.964 47.8754V42.6883C131.964 41.586 131.889 40.5149 131.742 39.478C131.595 38.4412 131.329 37.5232 130.951 36.7237C130.572 35.9242 130.056 35.2965 129.406 34.8344C128.755 34.3722 127.917 34.1505 126.894 34.1661C126.002 34.2005 125.227 34.4627 124.567 34.9561C123.907 35.4495 123.363 36.0835 122.934 36.858C122.506 37.6324 122.174 38.4974 121.942 39.4531C121.711 40.4086 121.589 41.3643 121.57 42.3198V48.0284C121.587 48.4406 121.614 48.7998 121.658 49.1027C121.699 49.4087 121.783 49.6585 121.906 49.8552C122.03 50.052 122.212 50.2019 122.45 50.2987C122.687 50.3986 123.006 50.4455 123.404 50.4455V50.6922C122.909 50.661 122.343 50.6359 121.709 50.6172C121.074 50.6016 120.391 50.5923 119.666 50.5923C119.172 50.5923 118.655 50.6016 118.118 50.6172C117.583 50.6328 117.048 50.6578 116.523 50.6922V50.4455C116.935 50.4455 117.261 50.3924 117.499 50.2863C117.736 50.18 117.918 50.0239 118.043 49.8178C118.168 49.6117 118.249 49.3493 118.29 49.0277C118.331 48.706 118.352 48.3251 118.352 47.8785V41.2831C118.352 40.774 118.349 40.3243 118.34 39.9371C118.331 39.5499 118.283 39.225 118.189 38.9628C118.099 38.7004 117.952 38.4881 117.755 38.332C117.554 38.1758 117.267 38.0821 116.885 38.0478C116.207 38.46 115.503 38.8254 114.774 39.147C114.046 39.4687 113.291 39.7529 112.513 39.9995C112.513 40.1307 112.516 40.2619 112.525 40.3962C112.535 40.5273 112.538 40.774 112.538 41.1362V45.8049C112.538 46.3983 112.541 46.976 112.55 47.535C112.56 48.094 112.613 48.5905 112.71 49.0184C112.81 49.4462 112.972 49.7928 113.204 50.0551C113.435 50.3174 113.782 50.4517 114.242 50.4517V50.6984C113.386 50.6984 112.653 50.6328 112.047 50.5017C111.44 50.3706 110.939 50.152 110.548 49.8459C110.154 49.543 109.864 49.1307 109.676 48.6092C109.488 48.0909 109.394 47.435 109.394 46.645C108.932 47.9472 108.206 48.9465 107.217 49.646C106.226 50.3455 104.975 50.7141 103.455 50.7453C102.649 50.7453 101.879 50.6578 101.153 50.486C100.427 50.3143 99.7928 50.0333 99.2486 49.646C98.7043 49.2588 98.2689 48.7529 97.95 48.1252C97.6281 47.5006 97.4682 46.7418 97.4682 45.8518L97.4653 45.8424ZM100.631 46.0641C100.631 47.3164 100.913 48.2969 101.475 49.0027C102.038 49.7116 102.949 50.0644 104.206 50.0644C104.915 50.0644 105.591 49.9583 106.229 49.7428C106.867 49.5305 107.414 49.1745 107.881 48.6811C108.347 48.1877 108.713 47.5444 108.985 46.7543C109.257 45.9642 109.394 44.993 109.394 43.8376V40.799C108.766 40.8989 108.162 40.9708 107.584 41.0207C107.136 41.0707 106.699 41.0988 106.267 41.1082C105.835 41.1175 105.423 41.105 105.025 41.0707C104.447 41.2018 103.893 41.383 103.361 41.614C102.832 41.8451 102.364 42.1575 101.96 42.554C101.553 42.9506 101.232 43.4316 100.993 43.9999C100.753 44.5683 100.633 45.2553 100.633 46.0641H100.631Z" fill="black"/>
<path d="M152.397 50.4618C153.204 50.4618 153.73 50.2525 153.967 49.8309C154.205 49.4125 154.334 48.7567 154.352 47.8667V38.5763C154.352 38.0672 154.349 37.6113 154.339 37.2178C154.331 36.8212 154.283 36.4902 154.193 36.2185C154.102 35.9468 153.948 35.7375 153.736 35.5876C153.52 35.4409 153.207 35.3503 152.795 35.316V35.0693C153.142 35.0381 153.523 34.9881 153.945 34.9225C154.365 34.8569 154.787 34.7757 155.206 34.6758C155.626 34.5759 156.044 34.4666 156.458 34.3417C156.87 34.2167 157.239 34.0824 157.571 33.9326V48.0135C157.586 48.8535 157.724 49.4718 157.981 49.8653C158.237 50.2619 158.75 50.4586 159.528 50.4586V50.7054C159.034 50.671 158.446 50.6492 157.77 50.6305C157.096 50.6148 156.376 50.6054 155.619 50.6054C155.09 50.6054 154.555 50.6148 154.011 50.6305C153.467 50.646 152.932 50.671 152.404 50.7054V50.4586L152.397 50.4618ZM154.055 30.944C154.055 30.4006 154.221 29.9385 154.549 29.5605C154.878 29.1827 155.309 28.9922 155.835 28.9922C156.394 28.9922 156.835 29.1858 157.158 29.5731C157.48 29.9603 157.64 30.4162 157.64 30.944C157.64 31.4717 157.47 31.8996 157.132 32.2775C156.795 32.6553 156.36 32.8458 155.835 32.8458C155.309 32.8458 154.9 32.6771 154.562 32.34C154.224 32.0027 154.055 31.5373 154.055 30.944Z" fill="black"/>
<path d="M161.305 42.359C161.305 41.1411 161.499 40.0169 161.887 38.9864C162.275 37.9558 162.829 37.069 163.544 36.3195C164.261 35.5701 165.127 34.986 166.143 34.5644C167.16 34.1428 168.282 33.9336 169.521 33.9336C171.698 33.9336 173.687 34.5426 175.486 35.7605L174.545 39.0458H174.42C174.288 38.3868 174.085 37.7654 173.813 37.1814C173.54 36.5974 173.197 36.0822 172.787 35.6388C172.374 35.1952 171.898 34.8392 171.363 34.577C170.829 34.3146 170.229 34.1803 169.569 34.1803C168.596 34.1803 167.783 34.4021 167.131 34.8486C166.481 35.2921 165.953 35.8792 165.549 36.6037C165.146 37.3281 164.855 38.1557 164.683 39.0863C164.511 40.0169 164.423 40.9601 164.423 41.9156C164.423 42.9368 164.514 43.9549 164.695 44.9666C164.877 45.9784 165.18 46.8903 165.612 47.6961C166.044 48.5017 166.606 49.1575 167.307 49.6603C168.008 50.163 168.871 50.4129 169.893 50.4129C171.229 50.3129 172.343 49.8788 173.234 49.1044C174.125 48.33 174.826 47.3337 175.339 46.1158L175.586 46.2158C175.008 47.6148 174.2 48.7141 173.162 49.5135C172.123 50.313 170.854 50.7127 169.353 50.7127C168.183 50.7127 167.1 50.5003 166.112 50.0694C165.124 49.6415 164.273 49.0514 163.563 48.3018C162.853 47.5524 162.302 46.6717 161.906 45.6568C161.508 44.645 161.311 43.5457 161.311 42.359H161.305Z" fill="black"/>
<path d="M24.2677 19.4735L33.826 16.6878C34.9895 16.3475 35.6557 15.1327 35.3179 13.971L32.528 4.42759C31.9807 2.55389 29.4378 2.27596 28.4964 3.98727L21.7281 16.3162C20.7897 18.0275 22.3911 20.0199 24.2677 19.4735Z" fill="black"/>
<path d="M36.8663 13.5187C37.2073 14.6805 38.4239 15.3456 39.5874 15.0083L50.3123 11.8824C52.1889 11.3359 52.4673 8.79704 50.7534 7.85707L36.8944 0.277923C35.1805 -0.658929 33.185 0.939966 33.7324 2.81367L36.8632 13.5219L36.8663 13.5187Z" fill="#C1272D"/>
<path d="M12.8112 40.345L16.9773 39.1302C18.1408 38.7898 18.807 37.5751 18.4692 36.4134L17.2525 32.2537C16.7052 30.3801 14.1623 30.1021 13.2209 31.8134L10.2715 37.1848C9.33318 38.8961 10.9346 40.8884 12.8112 40.3419V40.345Z" fill="black"/>
<path d="M44.2163 67.1347L40.6632 54.9806C40.3223 53.8189 39.1056 53.1537 37.9421 53.491L15.7011 59.974C13.8244 60.5205 13.5461 63.0594 15.26 63.9994L30.9861 72.606C31.4959 72.8838 32.0965 72.9494 32.6563 72.787L42.7244 69.8516C43.8879 69.5112 44.5541 68.2964 44.2163 67.1347Z" fill="black"/>
<path d="M45.8991 72.8849C45.5582 71.7232 44.3415 71.058 43.178 71.3953L38.8681 72.6507C36.9914 73.1971 36.713 75.736 38.4271 76.6761L43.9944 79.724C45.7083 80.6608 47.7038 79.0619 47.1564 77.1882L45.8991 72.8849Z" fill="#FF0000"/>
<path d="M56.5206 11.7475L18.9632 22.6931C18.4033 22.8555 17.9341 23.2333 17.6526 23.7423L17.2993 24.3887C17.0209 24.8978 16.9552 25.4974 17.1179 26.0564L20.0141 35.9652C20.2049 36.6147 20.6678 37.1081 21.2433 37.3579L57.5903 11.7101C57.24 11.6351 56.8709 11.6476 56.5206 11.7506V11.7475Z" fill="#FF0000"/>
<path d="M62.7858 23.4998L59.8895 13.591C59.7269 13.032 59.3484 12.5637 58.8386 12.2826L58.1911 11.9297C58.0003 11.8266 57.7971 11.7517 57.5907 11.708L21.2437 37.3559C21.6971 37.5557 22.2226 37.6026 22.7356 37.4527L61.2938 26.2136C62.4573 25.8732 63.1236 24.6584 62.7858 23.4967V23.4998Z" fill="#FF0000"/>
<path d="M7.50343 43.5664C6.94357 43.7289 6.47442 44.1067 6.19293 44.6157L1.16046 53.7844C0.578707 54.8462 0.966546 56.1765 2.02996 56.7573L3.00267 57.2882L39.2495 34.3135L7.50343 43.5664Z" fill="#FF0000"/>
<path d="M41.971 35.8039C41.63 34.6421 40.4134 33.977 39.2498 34.3143L3.00293 57.289L7.82271 59.9278C8.33252 60.2057 8.93305 60.2713 9.49288 60.109L43.8632 50.0908C45.0267 49.7504 45.6929 48.5356 45.3551 47.374L41.971 35.8039Z" fill="#C1272D"/>
<path d="M48.254 66.2833L48.4354 66.3051C48.5573 67.1233 48.7764 67.879 49.0953 68.5692C49.4144 69.2593 49.8241 69.8558 50.3245 70.3554C50.8249 70.8551 51.413 71.2455 52.0917 71.5265C52.7673 71.8076 53.5241 71.9481 54.3592 71.9481C55.1037 71.9481 55.8074 71.8669 56.4673 71.7107C57.1273 71.5515 57.7059 71.3047 58.2 70.9707C58.6942 70.6365 59.0852 70.2149 59.373 69.709C59.6607 69.2 59.8046 68.591 59.8046 67.8759C59.8046 67.2076 59.6263 66.6518 59.2697 66.2021C58.9132 65.7555 58.4441 65.3714 57.8686 65.0528C57.2899 64.7343 56.63 64.4564 55.8856 64.2222C55.1412 63.9879 54.378 63.7537 53.5961 63.5164C52.8141 63.2822 52.051 63.0199 51.3066 62.7326C50.5623 62.4453 49.9022 62.0892 49.3236 61.6614C48.745 61.2367 48.2791 60.7246 47.9224 60.125C47.5658 59.5254 47.3876 58.7853 47.3876 57.9077C47.3876 56.9678 47.6128 56.1746 48.06 55.5313C48.5074 54.888 49.0922 54.3633 49.8147 53.9605C50.5372 53.5576 51.3536 53.2672 52.2637 53.0862C53.1738 52.905 54.1028 52.8145 55.0442 52.8145C56.289 52.8145 57.4369 52.9424 58.4847 53.2016C59.5325 53.4609 60.5959 53.8543 61.6749 54.3852L60.5364 58.32L60.3081 58.2981C60.2768 57.5549 60.1205 56.8616 59.8421 56.2152C59.5606 55.5719 59.1853 55.0161 58.713 54.5538C58.2407 54.0917 57.6902 53.7263 57.0616 53.4609C56.4298 53.1954 55.7511 53.0611 55.0224 53.0611C54.353 53.0611 53.7149 53.1485 53.1082 53.3235C52.5014 53.4983 51.9603 53.7513 51.4912 54.0855C51.0189 54.4195 50.6467 54.8349 50.3746 55.3377C50.1024 55.8404 49.9648 56.4057 49.9648 57.0427C49.9648 57.6798 50.1431 58.1857 50.4997 58.601C50.8562 59.0195 51.3285 59.3661 51.9134 59.6472C52.4983 59.9283 53.1676 60.1749 53.9183 60.3873C54.6688 60.5996 55.4383 60.8152 56.2202 61.0369C57.0021 61.2586 57.7684 61.5022 58.5222 61.777C59.2728 62.0487 59.9422 62.3953 60.5271 62.8138C61.1119 63.2323 61.5842 63.7475 61.9408 64.3595C62.2974 64.9748 62.4756 65.7274 62.4756 66.6236C62.4756 67.6698 62.2567 68.5505 61.8157 69.2625C61.3747 69.9745 60.7836 70.5491 60.0391 70.98C59.2948 71.4141 58.4315 71.7201 57.4526 71.9013C56.4736 72.0823 55.4509 72.173 54.3874 72.173C53.08 72.173 51.8384 72.02 50.6623 71.717C49.4863 71.4141 48.3415 70.9207 47.2344 70.2367L48.2602 66.277L48.254 66.2833Z" fill="#FF0000"/>
<path d="M71.7466 72.1755C70.5768 72.1755 69.5197 71.9694 68.5782 71.5602C67.6368 71.1511 66.8361 70.589 66.173 69.877C65.513 69.165 65.0033 68.3313 64.6467 67.3756C64.2901 66.4201 64.1118 65.3895 64.1118 64.2809C64.1118 63.1723 64.2933 62.2292 64.6592 61.3111C65.0251 60.393 65.5413 59.5935 66.2074 58.9096C66.8767 58.2257 67.6837 57.6917 68.6345 57.3045C69.5854 56.9173 70.6425 56.7236 71.8123 56.7236C72.982 56.7236 74.0611 56.9204 75.0025 57.3138C75.9439 57.7073 76.7477 58.2507 77.4171 58.9408C78.0864 59.631 78.5993 60.4429 78.9559 61.3766C79.3125 62.3104 79.4907 63.3222 79.4907 64.4152C79.4907 65.5082 79.3125 66.5512 78.9559 67.4974C78.5993 68.4468 78.0833 69.265 77.4077 69.9551C76.7321 70.6452 75.9158 71.1886 74.9587 71.5821C74.0017 71.9756 72.932 72.1723 71.7466 72.1723V72.1755ZM67.0989 64.3028C67.0989 64.79 67.1238 65.3146 67.1802 65.8829C67.2333 66.4513 67.3272 67.0165 67.4648 67.5786C67.6024 68.1407 67.7838 68.6809 68.0121 69.2056C68.2405 69.7302 68.5313 70.1925 68.8879 70.5921C69.2444 70.995 69.6636 71.3167 70.142 71.5602C70.6206 71.8039 71.1867 71.9256 71.8404 71.9256C72.8131 71.9256 73.6013 71.6696 74.2112 71.1511C74.818 70.6359 75.2934 69.9988 75.6343 69.2399C75.9753 68.4812 76.2067 67.6598 76.3287 66.773C76.4506 65.886 76.5101 65.0773 76.5101 64.3496C76.5101 63.8656 76.4819 63.344 76.4287 62.7913C76.3755 62.2386 76.2817 61.6889 76.1441 61.1424C76.0065 60.5959 75.8251 60.0682 75.5967 59.5623C75.3684 59.0533 75.0807 58.6067 74.7304 58.2195C74.3801 57.8322 73.9641 57.5262 73.4762 57.2982C72.9914 57.0703 72.4284 56.9578 71.7904 56.9578C71.1523 56.9578 70.5894 57.0703 70.1045 57.2982C69.6197 57.5262 69.2037 57.8322 68.8628 58.2195C68.522 58.6067 68.2373 59.0502 68.0089 59.5498C67.7806 60.0495 67.5993 60.5741 67.4617 61.1206C67.324 61.6671 67.2301 62.2167 67.177 62.7694C67.1238 63.3222 67.0956 63.8343 67.0956 64.3059L67.0989 64.3028Z" fill="#FF0000"/>
<path d="M84.4169 72.0838C83.8695 72.0838 83.3222 72.0931 82.7748 72.1056C82.2275 72.1212 81.6802 72.1431 81.1328 72.1743V71.9464C81.8772 71.9464 82.3588 71.7527 82.5809 71.3655C82.7998 70.9782 82.9187 70.3756 82.9343 69.5574V55.998C82.9343 55.5264 82.9312 55.1111 82.9218 54.7457C82.9125 54.3803 82.8686 54.0743 82.7842 53.8245C82.6998 53.5747 82.559 53.381 82.362 53.2436C82.165 53.1062 81.8772 53.025 81.4956 52.9938V52.7658C81.8147 52.7346 82.1681 52.6909 82.5559 52.6284C82.9437 52.566 83.3316 52.4911 83.7194 52.4004C84.1073 52.3099 84.4888 52.2069 84.8704 52.0944C85.2489 51.982 85.5929 51.854 85.8963 51.7197V69.6948C85.9119 70.4692 86.037 71.0376 86.2716 71.3998C86.5062 71.7652 86.9816 71.9464 87.6947 71.9464V72.1743C87.1474 72.1431 86.6 72.1212 86.0527 72.1056C85.5054 72.09 84.958 72.0838 84.4106 72.0838H84.4169Z" fill="#FF0000"/>
<path d="M91.8701 56.7738C92.6895 56.7581 93.4182 56.7363 94.0563 56.7051V64.2374C94.0563 65.1929 94.1126 66.1361 94.2284 67.0698C94.3409 68.0035 94.5629 68.8342 94.888 69.5618C95.2136 70.2894 95.6736 70.8765 96.268 71.3262C96.8586 71.7728 97.6433 71.982 98.6135 71.9508C99.4483 71.9351 100.177 71.6916 100.8 71.2231C101.422 70.7516 101.938 70.1551 102.348 69.4244C102.757 68.6968 103.071 67.8848 103.283 66.9886C103.496 66.0954 103.608 65.2054 103.624 64.3279V59.2096C103.608 58.4351 103.486 57.8667 103.258 57.5045C103.03 57.1391 102.551 56.958 101.822 56.958V56.73C102.338 56.7612 102.786 56.78 103.167 56.7863C103.546 56.7956 103.889 56.7987 104.193 56.7987C104.603 56.7987 104.987 56.7956 105.344 56.7863C105.701 56.78 106.114 56.7612 106.586 56.73V68.9466C106.586 69.2339 106.589 69.5524 106.598 69.9022C106.605 70.252 106.654 70.5736 106.745 70.8702C106.836 71.1669 106.989 71.4167 107.202 71.6197C107.414 71.8259 107.728 71.9258 108.137 71.9258V72.1756C107.346 72.1756 106.667 72.1163 106.098 71.9945C105.529 71.8726 105.059 71.6729 104.697 71.3918C104.331 71.1107 104.062 70.7297 103.887 70.2425C103.711 69.7586 103.624 69.1496 103.624 68.422V66.6482C103.486 67.332 103.286 67.9973 103.021 68.6499C102.755 69.3026 102.414 69.8865 101.994 70.4019C101.575 70.9171 101.084 71.3387 100.512 71.6634C99.9424 71.9913 99.3016 72.1599 98.5851 72.1756C97.4152 72.2224 96.3712 72.0694 95.4512 71.7196C94.5317 71.3699 93.756 70.8578 93.1274 70.1833C92.4956 69.5087 92.0107 68.6842 91.6699 67.7131C91.329 66.7418 91.1506 65.6582 91.135 64.4591V59.3188C91.1194 58.5163 91.0005 57.9199 90.7816 57.5326C90.5627 57.1454 90.0778 56.9517 89.3335 56.9517V56.7238C90.1998 56.7706 91.0412 56.7831 91.8637 56.7706L91.8701 56.7738Z" fill="#FF0000"/>
<path d="M113.904 52.9512H114.154V56.7267H115.703V56.9546H114.154V69.2743C114.154 69.7833 114.202 70.233 114.292 70.6296C114.383 71.0231 114.537 71.3384 114.749 71.5727C114.962 71.8069 115.281 71.9256 115.706 71.9256V72.1754C114.914 72.1754 114.242 72.116 113.682 71.9943C113.123 71.8725 112.663 71.6726 112.303 71.3916C111.94 71.1105 111.674 70.7295 111.499 70.2424C111.327 69.7583 111.24 69.1493 111.24 68.4217V59.9588C111.24 59.5029 111.236 59.097 111.227 58.741C111.218 58.385 111.174 58.082 111.089 57.8322C111.005 57.5823 110.861 57.3824 110.658 57.2294C110.451 57.0796 110.161 56.9859 109.782 56.9577V56.7298C112.397 56.7298 113.773 55.4713 113.907 52.9543L113.904 52.9512Z" fill="#FF0000"/>
<path d="M117.367 71.9477C118.111 71.9477 118.593 71.754 118.815 71.3669C119.034 70.9797 119.153 70.3769 119.168 69.5588V61.0053C119.168 60.5368 119.165 60.1183 119.156 59.753C119.147 59.3876 119.103 59.0816 119.019 58.8317C118.935 58.582 118.794 58.3883 118.597 58.2509C118.399 58.1135 118.111 58.0323 117.73 58.001V57.7731C118.049 57.7419 118.403 57.6981 118.791 57.6357C119.178 57.5763 119.566 57.4983 119.954 57.4077C120.342 57.3172 120.723 57.2141 121.105 57.1017C121.484 56.9893 121.827 56.8643 122.131 56.7269V69.6961C122.146 70.4706 122.271 71.0389 122.506 71.4012C122.741 71.7666 123.216 71.9477 123.929 71.9477V72.1756C123.472 72.1444 122.935 72.1226 122.312 72.1069C121.69 72.0913 121.026 72.0851 120.329 72.0851C119.841 72.0851 119.35 72.0945 118.847 72.1069C118.346 72.1226 117.852 72.1444 117.364 72.1756V71.9477H117.367ZM118.894 53.9726C118.894 53.473 119.047 53.0483 119.35 52.6985C119.654 52.3488 120.048 52.1738 120.535 52.1738C121.052 52.1738 121.458 52.3519 121.755 52.7079C122.052 53.0639 122.199 53.4855 122.199 53.9695C122.199 54.4535 122.043 54.8501 121.733 55.1968C121.421 55.5465 121.024 55.7214 120.535 55.7214C120.048 55.7214 119.672 55.5652 119.362 55.2561C119.053 54.9469 118.897 54.516 118.897 53.9695L118.894 53.9726Z" fill="#FF0000"/>
<path d="M133.202 72.1755C132.032 72.1755 130.975 71.9694 130.034 71.5602C129.092 71.1511 128.291 70.589 127.629 69.877C126.969 69.165 126.459 68.3313 126.102 67.3756C125.746 66.4201 125.567 65.3895 125.567 64.2809C125.567 63.1723 125.749 62.2292 126.114 61.3111C126.481 60.393 126.997 59.5935 127.663 58.9096C128.329 58.2257 129.14 57.6917 130.09 57.3045C131.038 56.9173 132.098 56.7236 133.268 56.7236C134.437 56.7236 135.516 56.9204 136.458 57.3138C137.4 57.7073 138.203 58.2507 138.873 58.9408C139.542 59.631 140.055 60.4429 140.412 61.3766C140.769 62.3104 140.947 63.3222 140.947 64.4152C140.947 65.5082 140.769 66.5512 140.412 67.4974C140.055 68.4436 139.539 69.265 138.863 69.9551C138.187 70.6452 137.371 71.1886 136.415 71.5821C135.458 71.9756 134.388 72.1723 133.202 72.1723V72.1755ZM128.555 64.3028C128.555 64.79 128.579 65.3146 128.632 65.8829C128.686 66.4513 128.78 67.0165 128.917 67.5786C129.055 68.1407 129.236 68.6809 129.464 69.2056C129.693 69.7302 129.984 70.1925 130.344 70.5921C130.7 70.995 131.119 71.3167 131.598 71.5602C132.077 71.8039 132.643 71.9256 133.296 71.9256C134.269 71.9256 135.057 71.6696 135.667 71.1511C136.274 70.6359 136.749 69.9988 137.09 69.2399C137.431 68.4812 137.662 67.6598 137.784 66.773C137.906 65.886 137.966 65.0773 137.966 64.3496C137.966 63.8656 137.938 63.344 137.885 62.7913C137.831 62.2386 137.738 61.6889 137.6 61.1424C137.462 60.5959 137.281 60.0682 137.053 59.5623C136.824 59.0564 136.537 58.6067 136.186 58.2195C135.836 57.8322 135.42 57.5262 134.932 57.2982C134.444 57.0703 133.884 56.9578 133.246 56.9578C132.608 56.9578 132.045 57.0703 131.56 57.2982C131.072 57.5262 130.66 57.8322 130.319 58.2195C129.977 58.6067 129.693 59.0502 129.464 59.5498C129.236 60.0495 129.055 60.5741 128.917 61.1206C128.78 61.6671 128.686 62.2167 128.632 62.7694C128.579 63.3222 128.555 63.8343 128.555 64.3059V64.3028Z" fill="#FF0000"/>
<path d="M142.592 71.9467C143.336 71.9467 143.817 71.7531 144.04 71.3659C144.258 70.9786 144.378 70.376 144.393 69.5577V59.955C144.393 59.4866 144.39 59.0681 144.381 58.7027C144.371 58.3374 144.328 58.0314 144.243 57.7815C144.159 57.5317 144.018 57.3381 143.821 57.2007C143.624 57.0632 143.337 56.9821 142.954 56.9509V56.7228C143.273 56.6917 143.627 56.6479 144.015 56.5854C144.402 56.5262 144.79 56.4481 145.178 56.3575C145.567 56.2669 145.948 56.1639 146.329 56.0515C146.708 55.939 147.052 55.8142 147.355 55.6768V62.2534C147.493 61.5258 147.69 60.8325 147.946 60.1705C148.203 59.5116 148.531 58.9308 148.926 58.431C149.319 57.9314 149.795 57.5255 150.348 57.2131C150.902 56.9009 151.547 56.7385 152.275 56.7228C153.444 56.6761 154.492 56.8291 155.418 57.1788C156.345 57.5286 157.129 58.0407 157.777 58.7153C158.421 59.3898 158.918 60.208 159.268 61.1729C159.619 62.1379 159.807 63.2184 159.838 64.4145V69.5796C159.853 70.3853 159.969 70.9786 160.191 71.3659C160.41 71.7531 160.895 71.9467 161.639 71.9467V72.1747C161.107 72.1435 160.579 72.1217 160.057 72.106C159.532 72.0904 159.028 72.0841 158.543 72.0841C158.058 72.0841 157.604 72.0873 157.189 72.0966C156.77 72.106 156.41 72.1153 156.106 72.131C155.741 72.1466 155.415 72.1622 155.127 72.1778V71.9499C155.537 71.9499 155.859 71.9031 156.098 71.8124C156.331 71.7219 156.51 71.5814 156.632 71.3909C156.753 71.2004 156.832 70.9537 156.87 70.6508C156.907 70.3479 156.926 69.9919 156.926 69.5828V64.6673C156.926 63.6525 156.857 62.6719 156.719 61.7319C156.582 60.792 156.341 59.9613 155.991 59.2399C155.64 58.5185 155.165 57.9533 154.568 57.5442C153.967 57.1351 153.197 56.9383 152.253 56.954C151.418 56.9852 150.696 57.2319 150.089 57.6941C149.482 58.1563 148.979 58.7527 148.584 59.4803C148.19 60.208 147.89 61.0199 147.684 61.9162C147.478 62.8124 147.368 63.6993 147.352 64.5768V69.6951C147.368 70.4696 147.493 71.038 147.727 71.4002C147.962 71.7657 148.437 71.9467 149.15 71.9467V72.1747C148.39 72.1435 147.774 72.1185 147.305 72.0966C146.833 72.0748 146.395 72.0623 145.982 72.0623C145.541 72.0623 145.085 72.0748 144.615 72.0966C144.143 72.1185 143.514 72.1466 142.723 72.1747H142.585V71.9467H142.592Z" fill="#FF0000"/>
<path d="M165.174 63.756C164.717 63.4062 164.38 62.9909 164.16 62.5037C163.942 62.0196 163.839 61.5137 163.854 60.9923C163.87 60.4676 164.011 59.9523 164.276 59.4464C164.542 58.9374 164.933 58.4846 165.45 58.0818C165.965 57.6789 166.616 57.3541 167.398 57.1043C168.179 56.8544 169.102 56.7295 170.166 56.7295C170.728 56.7295 171.241 56.7545 171.704 56.8076C172.168 56.8607 172.608 56.9294 173.027 57.0137C173.444 57.0981 173.844 57.2011 174.222 57.3198C174.601 57.4415 174.989 57.5695 175.386 57.707L174.542 61.0047H174.36C174.285 60.4144 174.135 59.868 173.916 59.3652C173.694 58.8656 173.416 58.4378 173.071 58.0786C172.73 57.7226 172.33 57.4415 171.874 57.2355C171.416 57.0294 170.91 56.9294 170.347 56.9294C169.327 56.9294 168.498 57.1105 167.851 57.4759C167.203 57.8413 166.741 58.2691 166.462 58.7625C166.181 59.2559 166.078 59.7649 166.156 60.2865C166.231 60.8111 166.491 61.2296 166.932 61.548C167.31 61.8197 167.855 62.0446 168.562 62.2195C169.268 62.3943 170.016 62.5693 170.807 62.7441C171.598 62.919 172.374 63.1252 173.143 63.3593C173.91 63.5935 174.545 63.9027 175.045 64.2806C175.514 64.6459 175.877 65.0925 176.127 65.6234C176.377 66.1542 176.496 66.7132 176.48 67.2972C176.465 67.8812 176.312 68.4652 176.024 69.0491C175.736 69.6331 175.292 70.1578 174.691 70.6199C174.091 71.0821 173.328 71.4568 172.402 71.7473C171.476 72.0346 170.375 72.1782 169.099 72.1782C168.02 72.1782 167.026 72.069 166.115 71.8472C165.205 71.6287 164.261 71.2663 163.292 70.7667L164.227 67.4221H164.339C164.414 68.1061 164.589 68.7244 164.865 69.2771C165.136 69.8298 165.49 70.3045 165.925 70.698C166.356 71.0915 166.867 71.4006 167.451 71.6192C168.035 71.841 168.671 71.9503 169.353 71.9503C170.491 71.9503 171.404 71.7348 172.087 71.3007C172.768 70.8667 173.259 70.3608 173.557 69.7767C173.854 69.1928 173.966 68.6057 173.897 68.0124C173.828 67.4221 173.603 66.9569 173.224 66.6258C172.874 66.3229 172.361 66.0824 171.686 65.9076C171.01 65.7326 170.284 65.564 169.509 65.3955C168.733 65.2299 167.961 65.0238 167.186 64.7802C166.409 64.5367 165.743 64.1963 165.18 63.756H165.174Z" fill="#FF0000"/>
<path d="M80.7793 79.1888C80.8106 79.2013 80.8262 79.2263 80.8262 79.2669C80.8262 79.3075 80.8169 79.3512 80.7981 79.398C80.7793 79.4449 80.7637 79.4855 80.7543 79.5199C80.4196 80.3006 80.0256 81.0469 79.5689 81.762C79.1123 82.4772 78.5649 83.1079 77.9237 83.6513C77.586 83.9324 77.2262 84.1854 76.8509 84.4133C76.4756 84.6413 76.069 84.8318 75.6374 84.9848C75.3621 85.0847 75.1151 85.1534 74.8899 85.1909C74.6647 85.2284 74.4051 85.2472 74.1049 85.2441C73.9359 85.2503 73.7671 85.2441 73.5981 85.2315C73.4293 85.219 73.2573 85.1878 73.0852 85.1441C72.2845 84.9161 71.6903 84.4289 71.2993 83.6857C71.1679 83.4265 71.0647 83.1642 70.9897 82.8956C70.9146 82.6302 70.8583 82.3616 70.8239 82.0931C70.7332 81.3717 70.7301 80.6659 70.8145 79.9695C70.9271 79.0014 71.1242 78.0708 71.4057 77.1808C71.6871 76.2877 72.0405 75.432 72.4691 74.6076C72.9351 73.6926 73.5074 72.8557 74.1893 72.0937C74.6615 71.566 75.1964 71.1131 75.8031 70.7384C76.2536 70.4511 76.754 70.2668 77.3045 70.1763C77.5484 70.1325 77.7924 70.1451 78.0395 70.2075C78.4273 70.3012 78.6744 70.5385 78.7776 70.9196C78.8526 71.2287 78.8526 71.6128 78.7776 72.0688C78.7025 72.5246 78.5837 73.0025 78.4242 73.499C78.2615 73.9955 78.0833 74.4577 77.8894 74.8824C77.6923 75.3071 77.5141 75.6444 77.3514 75.8974C77.3045 75.9629 77.2451 76.0004 77.1763 76.016C77.1074 76.0285 77.0324 76.0254 76.948 76.0035C76.9041 75.9941 76.8697 75.9692 76.8447 75.9348C76.8197 75.8974 76.8135 75.863 76.8291 75.8318C76.8447 75.7787 76.8634 75.7287 76.8916 75.6819C76.9041 75.6568 76.9166 75.6257 76.9322 75.5944C76.9917 75.4507 77.0636 75.2915 77.1418 75.1198C77.3139 74.7325 77.4952 74.3109 77.6829 73.8519C77.8706 73.3928 78.0239 72.9338 78.1395 72.4778C78.2553 72.0219 78.2991 71.6096 78.2678 71.2381C78.2115 70.6135 77.8925 70.3793 77.317 70.5385C77.0636 70.6072 76.8259 70.7009 76.607 70.8165C76.3881 70.932 76.1785 71.0601 75.9752 71.2069C75.5748 71.4973 75.2089 71.8189 74.8773 72.1749C74.5459 72.5278 74.2455 72.9057 73.9704 73.3085C72.6129 75.2759 71.781 77.5087 71.4713 80.0039C71.3806 80.7253 71.3837 81.4653 71.4776 82.2149C71.5307 82.6458 71.6558 83.0736 71.856 83.489C72.0594 83.8981 72.297 84.2135 72.5754 84.4321C72.8538 84.6507 73.1415 84.7912 73.4418 84.8599C73.742 84.9286 74.0235 84.9473 74.2862 84.9161C74.7492 84.863 75.187 84.7412 75.5968 84.5539C76.4099 84.1854 77.073 83.7919 77.5891 83.3734C78.1052 82.9549 78.5368 82.5178 78.8871 82.0587C79.2374 81.5996 79.5658 81.1187 79.8692 80.6159C79.9911 80.416 80.0975 80.2256 80.1882 80.0413C80.2946 79.8227 80.4322 79.5792 80.6042 79.3106C80.6605 79.2263 80.7262 79.1888 80.795 79.1982L80.7793 79.1888Z" fill="black"/>
<path d="M84.1663 79.5634C84.1037 79.6633 84.0349 79.7696 83.9598 79.8819C83.5939 80.416 83.2999 80.7345 83.0778 80.8376C82.8558 80.9406 82.6712 80.9687 82.5211 80.9219C82.3741 80.875 82.2521 80.7907 82.1614 80.6751C82.0675 80.5596 82.0051 80.4285 81.9675 80.2817C81.8142 80.6346 81.5452 80.8125 81.1668 80.8125C80.9541 80.8125 80.7821 80.7189 80.6507 80.5315C80.5194 80.3442 80.4349 80.1099 80.4005 79.8289C80.3662 79.5479 80.3911 79.2606 80.4818 78.97C80.5037 78.8733 80.5631 78.8077 80.6601 78.7734C80.7258 78.7483 80.7978 78.7483 80.8697 78.7796C80.9416 78.8108 80.9791 78.8577 80.9854 78.9201C80.9854 78.9857 80.9791 79.0482 80.9698 79.1106C80.9573 79.1574 80.9479 79.2043 80.9448 79.248C80.9353 79.4198 80.9385 79.6102 80.9541 79.8163C80.9698 80.0225 81.0261 80.2005 81.1167 80.3473C81.2074 80.466 81.3076 80.4785 81.4201 80.3909C81.5296 80.3035 81.6265 80.1661 81.711 79.9819C81.7767 79.8352 81.8267 79.6884 81.8643 79.5447C81.9018 79.401 81.9237 79.2886 81.9363 79.2074L81.9519 79.1419C81.9675 79.0794 81.9862 79.0169 82.0018 78.9576C82.0269 78.8702 82.055 78.7827 82.0801 78.6984C82.127 78.536 82.2427 78.4673 82.4273 78.4923C82.5398 78.5017 82.6024 78.5579 82.6118 78.6578C82.6212 78.7952 82.6243 78.9326 82.618 79.0669C82.6118 79.2106 82.6055 79.3511 82.5962 79.4885C82.5837 79.6884 82.5743 79.885 82.5712 80.0818C82.5648 80.3691 82.6868 80.4816 82.9309 80.4222C83.1748 80.3629 83.497 80.0131 83.8941 79.3698C83.9317 79.3042 83.9598 79.2293 83.9723 79.1419C83.9848 79.0544 84.0255 78.9607 84.0943 78.8546C84.185 78.7265 84.3382 78.6516 84.5573 78.6329C84.6636 78.6235 84.7636 78.6297 84.8544 78.6484C84.9482 78.6703 85.0326 78.714 85.1108 78.7827C85.1264 78.7983 85.139 78.817 85.1484 78.839C85.1577 78.8608 85.1515 78.8858 85.139 78.917C85.1139 78.9638 85.0733 78.9889 85.0201 78.9889C84.9826 78.9889 84.9451 78.9826 84.9075 78.9732C84.87 78.9576 84.8355 78.942 84.8043 78.9264L84.7417 78.8951C84.6729 78.8702 84.6197 78.8733 84.5823 78.9045C84.5447 78.9389 84.5259 78.9889 84.5259 79.0607C84.5322 79.1824 84.5823 79.3136 84.6761 79.4541C84.77 79.5946 84.8669 79.7227 84.9607 79.8383C84.9983 79.8788 85.0326 79.9194 85.0577 79.9569C85.0827 79.9819 85.1546 79.9788 85.2672 79.9444C85.3798 79.9101 85.5862 79.8132 85.8896 79.654C86.1899 79.4947 86.3432 79.4448 86.3432 79.4979C86.3432 79.551 86.2274 79.6509 85.9929 79.7914C85.7582 79.9319 85.5862 80.0381 85.4767 80.1099C85.3673 80.1817 85.311 80.2255 85.311 80.2411C85.3329 80.2879 85.3548 80.3691 85.3798 80.4816C85.4048 80.5939 85.4142 80.7158 85.4079 80.85C85.4017 80.9812 85.3579 81.0998 85.2797 81.2029C85.2016 81.3059 85.0671 81.3684 84.8825 81.3903C84.698 81.4059 84.5322 81.3778 84.3852 81.3059C84.2382 81.2341 84.1475 81.1311 84.1099 80.9968C84.0725 80.8625 84.1162 80.7064 84.2444 80.5252C84.3289 80.4253 84.429 80.3379 84.5478 80.263C84.5885 80.2379 84.6292 80.2067 84.6729 80.1755C84.5322 80.0225 84.3977 79.8632 84.2694 79.7009C84.2319 79.654 84.1975 79.6071 84.1663 79.5666V79.5634ZM84.7293 81.1155C84.7981 81.1093 84.845 81.0718 84.8669 80.9999C84.8887 80.9281 84.895 80.85 84.8919 80.7626C84.8856 80.6751 84.8794 80.6127 84.8762 80.569C84.8669 80.544 84.8513 80.5252 84.8262 80.519C84.8012 80.5128 84.7793 80.5128 84.7574 80.5221C84.6792 80.5846 84.6197 80.6626 84.5823 80.7595C84.5447 80.8563 84.5478 80.9406 84.5916 81.0124C84.6072 81.0375 84.6261 81.0624 84.6479 81.0811C84.6698 81.0998 84.7011 81.1124 84.7324 81.1186L84.7293 81.1155Z" fill="black"/>
<path d="M88.7426 79.7295C88.8738 79.6014 88.9333 79.5702 88.9145 79.6327C88.8958 79.6952 88.8239 79.8107 88.6956 79.9794C88.5674 80.1479 88.411 80.326 88.2202 80.5227C88.0294 80.7163 87.8293 80.885 87.6166 81.0286C87.4039 81.1723 87.2037 81.2504 87.0129 81.2597C86.7783 81.2597 86.5938 81.191 86.453 81.0536C86.3123 80.9162 86.2122 80.7319 86.1528 80.5071C86.0933 80.2822 86.0683 80.0356 86.0777 79.7701C86.0902 79.4735 86.0996 79.1799 86.1089 78.8832C86.1153 78.7333 86.1184 78.5896 86.1247 78.446C86.1372 78.2087 86.1465 77.9713 86.1496 77.734C86.1559 77.6591 86.1434 77.5966 86.1122 77.5467C86.084 77.4967 86.0308 77.4685 85.9557 77.4623C85.8713 77.4561 85.765 77.4561 85.6399 77.4561H85.3552C85.2457 77.4436 85.1707 77.4155 85.1332 77.3686C85.0956 77.3218 85.1269 77.275 85.2207 77.225C85.2895 77.2 85.3677 77.1844 85.4646 77.1812C85.5585 77.1812 85.6523 77.1812 85.743 77.1844C85.7993 77.1906 85.8525 77.1906 85.8931 77.1906C86.0339 77.1906 86.1215 77.1688 86.1528 77.1251C86.1841 77.0813 86.2028 76.9939 86.2091 76.8596C86.2185 76.7191 86.2247 76.5786 86.231 76.438C86.2372 76.3631 86.2403 76.2882 86.2497 76.2163C86.2497 76.107 86.2779 76.0071 86.3373 75.9166C86.3999 75.8322 86.4781 75.801 86.575 75.8197C86.6594 75.8415 86.7064 75.8946 86.7158 75.9789C86.722 76.1195 86.7251 76.26 86.7251 76.4005C86.7314 76.4786 86.7314 76.5599 86.7251 76.6379C86.7251 76.7222 86.7251 76.8096 86.7314 76.9002C86.7251 77.0251 86.7407 77.1032 86.7752 77.1376C86.8096 77.1719 86.891 77.1875 87.0254 77.1875H87.6665C87.7636 77.1875 88.0482 77.1812 88.5235 77.1688C88.999 77.1563 89.2555 77.1937 89.293 77.2843C89.3305 77.3749 89.0303 77.428 88.3891 77.4405C88.0012 77.4623 87.701 77.4716 87.4914 77.4716C87.3507 77.4654 87.2224 77.4654 87.1099 77.4654C86.9191 77.4654 86.8033 77.4998 86.7596 77.5654C86.7158 77.631 86.6939 77.7653 86.7001 77.9619C86.6939 78.1338 86.6877 78.3399 86.6751 78.5803C86.6438 79.0768 86.6282 79.5827 86.6282 80.1012C86.6407 80.4572 86.7033 80.6882 86.819 80.7912C86.9347 80.8975 87.0848 80.9162 87.2694 80.8506C87.4539 80.785 87.6541 80.6663 87.8699 80.4977C88.0857 80.3291 88.2983 80.1479 88.511 79.9512C88.558 79.8919 88.6112 79.8357 88.6769 79.7826C88.6987 79.7639 88.7175 79.7451 88.7393 79.7295H88.7426Z" fill="black"/>
<path d="M91.4663 79.4914C91.5038 79.4539 91.5226 79.5008 91.5226 79.6225C91.5226 79.7475 91.4131 79.9193 91.1848 80.141C90.9565 80.3627 90.7219 80.4688 90.4811 80.4564C90.4279 80.4501 90.3841 80.4563 90.3466 80.4688C90.309 80.4813 90.2778 80.5126 90.2497 80.5594C90.2246 80.6031 90.1934 80.6406 90.1558 80.6781L90.1495 80.6843C89.9994 80.8436 89.8243 80.9466 89.6241 80.9966C89.4239 81.0465 89.2331 81.0309 89.0517 80.9498C88.8703 80.8686 88.742 80.7125 88.6607 80.4845C88.6044 80.2784 88.5982 80.0723 88.6451 79.8693C88.6858 79.6881 88.7514 79.5195 88.8422 79.3603C88.9516 79.1479 89.0955 79.0012 89.2738 78.9105C89.452 78.8231 89.6522 78.7731 89.8743 78.7638C90.2058 78.7482 90.4154 78.9043 90.503 79.2322C90.5562 79.4227 90.5686 79.6132 90.5437 79.8099C90.5374 79.8537 90.5279 79.9005 90.5186 79.9473C90.5092 79.9785 90.4998 80.0098 90.4936 80.041C90.4842 80.1472 90.5312 80.194 90.6312 80.1846C90.9096 80.1379 91.188 79.9036 91.4632 79.4851L91.4663 79.4914ZM89.5052 80.7187C89.6773 80.6406 89.7961 80.5063 89.8618 80.3158C89.5772 80.1347 89.3895 79.8755 89.2925 79.5382C89.205 79.6975 89.1487 79.8818 89.1299 80.0941C89.1111 80.3065 89.1299 80.4813 89.1925 80.6187C89.2551 80.7561 89.3582 80.7905 89.5052 80.7218V80.7187ZM89.99 79.9411C90.037 79.8724 90.062 79.7912 90.0713 79.6912C90.0807 79.5945 90.0745 79.4946 90.0557 79.3977C90.037 79.3009 90.0119 79.2229 89.9807 79.1697C89.9493 79.1135 89.915 79.0979 89.8774 79.1198C89.8117 79.176 89.7773 79.2603 89.768 79.3696C89.7617 79.4789 89.7774 79.5851 89.818 79.6943C89.8587 79.8037 89.915 79.8849 89.99 79.9442V79.9411Z" fill="black"/>
<path d="M95.8014 80.1326V80.1264C95.8232 80.1045 95.8734 80.0577 95.9576 79.9827C96.039 79.9109 96.1271 79.8391 96.2141 79.7735C96.305 79.7079 96.3713 79.6736 96.4082 79.6705C96.446 79.6673 96.4394 79.7267 96.3798 79.8484C96.3713 79.8641 96.3552 79.8859 96.3362 79.9078C96.3173 79.9297 96.2993 79.9515 96.2861 79.9734C96.2804 79.9796 96.2738 79.9827 96.2681 79.9921C95.8989 80.3887 95.6074 80.6635 95.3982 80.8134C95.1891 80.9664 94.9818 81.0382 94.7792 81.0289C94.5661 81.0071 94.4254 80.9259 94.3503 80.7822C94.2753 80.6385 94.2409 80.4668 94.2409 80.2607C94.2409 80.0545 94.2597 79.8484 94.2909 79.6361C94.3253 79.4175 94.3378 79.2302 94.3316 79.0771C94.3253 78.9241 94.2722 78.8304 94.1721 78.8055C94.0782 78.7992 93.9813 78.8773 93.8844 79.0365C93.7842 79.1989 93.6904 79.3863 93.6029 79.6018C93.5152 79.8141 93.4402 80.0046 93.3808 80.167C93.3495 80.2544 93.3276 80.32 93.312 80.3575C93.2682 80.4418 93.2087 80.4981 93.1274 80.523C93.0492 80.548 92.9648 80.5448 92.874 80.5074C92.8209 80.473 92.7896 80.4293 92.7771 80.37C92.7615 80.2419 92.7584 80.1108 92.7615 79.9734C92.7677 79.8859 92.7677 79.7985 92.7615 79.7141V79.5081C92.7615 79.4675 92.7584 79.4299 92.749 79.3956C92.7396 79.3613 92.7239 79.3456 92.6958 79.3456C92.6551 79.3394 92.6051 79.3894 92.5457 79.4924C92.4862 79.5955 92.4268 79.7173 92.3674 79.861C92.3079 80.0046 92.2517 80.1326 92.2048 80.2482C92.1609 80.3481 92.1328 80.4168 92.1172 80.4543C92.111 80.4699 92.1016 80.4886 92.0921 80.5043C92.0453 80.5979 91.9952 80.6916 91.9482 80.7885C91.9076 80.8665 91.8388 80.9133 91.7418 80.929C91.548 80.9633 91.4416 80.8821 91.426 80.6916C91.4103 80.2013 91.3978 79.711 91.3853 79.2176C91.3853 79.0896 91.4635 79.0459 91.623 79.0834C91.7825 79.1208 91.8701 79.202 91.8857 79.3301C91.9014 79.5362 91.9233 79.6423 91.9577 79.6423C91.9889 79.6423 92.0578 79.5549 92.1578 79.3676C92.211 79.2801 92.2673 79.1895 92.3236 79.099C92.3925 78.9803 92.4831 78.8742 92.602 78.7804C92.7208 78.7024 92.8397 78.6774 92.9491 78.7117C93.0617 78.743 93.1493 78.8273 93.2119 78.9647C93.2369 79.0209 93.265 79.0521 93.29 79.0584C93.3151 79.0646 93.3432 79.0521 93.3682 79.0209C93.3933 78.9928 93.4214 78.9585 93.4465 78.9178C93.4684 78.8742 93.4934 78.8366 93.5183 78.8055C93.6686 78.643 93.8437 78.5275 94.0501 78.465C94.2565 78.4026 94.4411 78.4026 94.61 78.4713C94.7792 78.54 94.8729 78.6899 94.9004 78.9241C94.9098 79.202 94.8918 79.4862 94.8445 79.7766C94.8256 79.9171 94.8104 80.0483 94.7972 80.1732C94.7887 80.4449 94.8379 80.5917 94.9448 80.6198C95.0537 80.6448 95.1853 80.6042 95.3414 80.4917C95.4986 80.3793 95.6481 80.2575 95.7958 80.1264L95.8014 80.1326Z" fill="black"/>
<path d="M114.223 69.5836C114.43 69.7148 114.499 69.9022 114.434 70.1395C114.389 70.2551 114.333 70.3612 114.264 70.4643C114.149 70.6267 114.01 70.7734 113.851 70.9015C113.11 71.5292 112.259 71.9195 111.296 72.0631C111.083 72.0975 110.874 72.135 110.661 72.1756C110.564 72.1974 110.473 72.1912 110.392 72.16C110.339 72.1381 110.314 72.1038 110.314 72.0538C110.317 72.032 110.327 72.01 110.339 71.9913C110.348 71.9695 110.363 71.957 110.377 71.9539C110.445 71.9164 110.517 71.8883 110.593 71.8758C110.686 71.8601 110.78 71.8414 110.876 71.8258C110.946 71.8196 111.018 71.8102 111.089 71.7978C111.565 71.7103 112.003 71.551 112.4 71.32C112.797 71.0889 113.163 70.8015 113.504 70.4581C113.604 70.3612 113.682 70.2488 113.736 70.1145C113.792 69.9553 113.748 69.8428 113.602 69.7772C113.41 69.7085 113.213 69.6711 113.013 69.6648H111.956C111.327 69.6648 110.699 69.6992 110.076 69.7648C109.451 69.8304 108.828 69.9084 108.205 69.9958C107.214 70.1239 106.229 70.2769 105.244 70.4581C105.25 70.5891 105.25 70.7234 105.25 70.8546V83.7676C105.25 84.1798 105.244 84.5889 105.229 85.0042C105.229 85.226 105.122 85.3165 104.91 85.2822C104.803 85.2665 104.743 85.2072 104.725 85.1104C104.725 85.0667 104.725 85.023 104.718 84.9823C104.703 84.7825 104.694 84.5795 104.694 84.3734C104.687 83.0431 104.687 81.7096 104.687 80.373V70.5642C104.687 70.5642 104.665 70.5735 104.656 70.5735C104.625 70.5798 104.596 70.5829 104.568 70.5891C103.783 70.7422 103.008 70.9264 102.241 71.1357C101.475 71.3449 100.718 71.5948 99.9735 71.8821C99.7075 71.982 99.4481 72.0913 99.1888 72.213C99.1102 72.2505 99.0326 72.2849 98.9607 72.3193C98.8168 72.3724 98.7004 72.466 98.6161 72.6034C98.5603 72.6877 98.4723 72.7315 98.354 72.7346C98.2375 72.7346 98.1344 72.7033 98.0435 72.6377C97.9753 72.5721 97.9659 72.5034 98.0189 72.4285C98.0747 72.3504 98.1467 72.2817 98.2281 72.2256C98.3095 72.1694 98.3975 72.1194 98.4884 72.0694C98.9418 71.8383 99.4046 71.6384 99.8769 71.4667C101.078 71.0295 102.297 70.6767 103.543 70.4049C103.924 70.3269 104.306 70.2488 104.687 70.177C104.69 70.0989 104.697 70.0208 104.703 69.9458C104.718 69.8459 104.769 69.7741 104.85 69.7366C104.931 69.6992 105.022 69.7023 105.125 69.7492C105.2 69.7897 105.234 69.8522 105.231 69.9396C105.231 69.9865 105.231 70.0334 105.238 70.0801C106.15 69.9209 107.068 69.7772 107.99 69.6523C108.947 69.5149 109.907 69.4088 110.871 69.3338C111.621 69.2807 112.372 69.2745 113.125 69.3119C113.37 69.3276 113.61 69.365 113.849 69.4244C113.986 69.4555 114.111 69.5118 114.226 69.5898L114.223 69.5836Z" fill="black"/>
<path d="M108.616 80.0019C108.541 80.1549 108.416 80.3266 108.234 80.514C108.053 80.7013 107.853 80.82 107.624 80.87C107.396 80.92 107.181 80.8419 106.974 80.6357C106.896 80.5452 106.836 80.4391 106.798 80.3204C106.761 80.2017 106.749 80.0831 106.758 79.9675V79.8488C106.758 79.7271 106.764 79.5834 106.774 79.4241C106.783 79.2617 106.808 79.1181 106.846 78.9869C106.883 78.8557 106.942 78.7808 107.021 78.7527C107.249 78.6965 107.374 78.7745 107.393 78.99C107.393 79.0587 107.393 79.1305 107.387 79.1992C107.38 79.2368 107.38 79.268 107.38 79.2992C107.374 79.3991 107.371 79.5022 107.365 79.6021C107.365 79.6802 107.361 79.7614 107.356 79.8394C107.349 80.1861 107.428 80.3953 107.59 80.4609C107.749 80.5265 107.934 80.4578 108.14 80.2517C108.347 80.0455 108.481 79.8738 108.547 79.7364C108.61 79.599 108.656 79.5709 108.685 79.649C108.713 79.7271 108.691 79.8457 108.616 79.9988V80.0019ZM107.346 78.0126C107.315 78.0376 107.277 78.0563 107.234 78.0625C107.19 78.0688 107.149 78.0657 107.114 78.0532C107.09 78.0314 107.071 78.0032 107.064 77.9689C107.058 77.9345 107.055 77.8939 107.055 77.8439C107.055 77.8346 107.055 77.8252 107.061 77.8159C107.068 77.7721 107.077 77.7284 107.093 77.6847C107.14 77.5691 107.239 77.5161 107.393 77.5255C107.447 77.5317 107.486 77.5535 107.518 77.5911C107.55 77.6285 107.555 77.6691 107.536 77.7159C107.5 77.8346 107.437 77.9314 107.346 78.0126Z" fill="black"/>
<path d="M111.121 79.7858C111.161 79.6859 111.205 79.639 111.255 79.639C111.305 79.639 111.317 79.689 111.302 79.7858C111.224 80.0294 111.127 80.2667 111.017 80.4884C110.908 80.7133 110.758 80.9131 110.567 81.0912C110.423 81.2348 110.252 81.3285 110.051 81.3691C109.779 81.4065 109.554 81.3754 109.379 81.2723C109.204 81.1692 109.063 81.0194 108.96 80.8288C108.857 80.6352 108.778 80.426 108.728 80.1949C108.678 79.9669 108.644 79.7421 108.631 79.5266C108.593 79.1175 108.565 78.5835 108.547 77.9152C108.528 77.2501 108.534 76.5475 108.565 75.8042C108.596 75.061 108.668 74.3739 108.785 73.74C108.897 73.106 109.066 72.6157 109.288 72.266C109.416 72.0943 109.564 72.01 109.732 72.0068C109.901 72.0068 110.051 72.0818 110.185 72.241C110.273 72.3628 110.342 72.4939 110.389 72.6313C110.435 72.7687 110.464 72.9062 110.48 73.0498C110.526 73.537 110.521 74.0522 110.461 74.5925C110.401 75.1328 110.305 75.7136 110.176 76.3257C110.044 76.9409 109.892 77.4812 109.71 77.9495C109.529 78.418 109.379 78.7896 109.26 79.0613C109.194 79.1706 109.169 79.3392 109.188 79.5609C109.21 79.8046 109.257 80.0575 109.325 80.3198C109.394 80.5822 109.494 80.7913 109.622 80.9475C109.742 81.0755 109.876 81.1161 110.026 81.0661C110.176 81.0194 110.324 80.9163 110.47 80.7632C110.617 80.6102 110.749 80.4416 110.861 80.2605C110.974 80.0793 111.061 79.9201 111.121 79.7795V79.7858ZM109.197 76.1008C109.181 76.2602 109.169 76.4975 109.157 76.8191C109.144 77.1408 109.132 77.4656 109.119 77.7965C109.109 78.165 109.097 78.4555 109.087 78.6615C109.207 78.3962 109.341 78.012 109.497 77.5092C109.653 77.0065 109.797 76.41 109.926 75.7261C110.054 75.0422 110.139 74.3021 110.176 73.5027C110.154 73.0373 110.098 72.722 110.007 72.5564C109.917 72.3909 109.819 72.3753 109.713 72.5127C109.607 72.6501 109.523 72.9374 109.459 73.3777C109.363 74.1053 109.288 74.8329 109.238 75.5637C109.222 75.7448 109.21 75.9229 109.197 76.1008Z" fill="black"/>
<path d="M114.559 79.723C114.612 79.6918 114.662 79.6669 114.715 79.6512C114.765 79.6356 114.799 79.6356 114.815 79.6543C114.83 79.6731 114.808 79.7168 114.753 79.7824C114.571 79.9885 114.355 80.179 114.105 80.3507C113.854 80.5226 113.595 80.6662 113.332 80.7848C113.126 80.8786 112.907 80.9535 112.679 81.0065C112.451 81.0627 112.222 81.0752 111.996 81.044C111.771 81.0128 111.569 80.9129 111.38 80.7443C111.099 80.485 110.984 80.1666 111.03 79.7949C111.071 79.4982 111.187 79.2453 111.377 79.0361C111.569 78.83 111.809 78.6863 112.1 78.6145C112.344 78.5614 112.585 78.5551 112.828 78.5957C112.938 78.6114 113.041 78.6488 113.132 78.7081C113.216 78.7737 113.264 78.8487 113.269 78.9361C113.279 79.0235 113.245 79.1048 113.17 79.186C113.017 79.3234 112.838 79.4046 112.634 79.4295C112.41 79.467 112.181 79.492 111.953 79.5013C111.843 79.5013 111.765 79.5233 111.722 79.57C111.677 79.6169 111.65 79.695 111.643 79.8042C111.605 80.1041 111.703 80.3507 111.931 80.5381C112.072 80.6505 112.243 80.7005 112.447 80.6818C112.65 80.6662 112.866 80.61 113.094 80.5162C113.322 80.4226 113.545 80.3164 113.764 80.1915C113.983 80.0666 114.18 79.9511 114.355 79.8417C114.43 79.7949 114.496 79.7543 114.552 79.723H114.559ZM112.05 79.0829C112.05 79.0829 112.047 79.0891 112.041 79.0891C112.031 79.0985 112.019 79.111 112.003 79.1235C111.987 79.136 111.972 79.1484 111.959 79.164C111.946 79.1766 111.941 79.186 111.941 79.1922C111.946 79.2078 111.987 79.214 112.072 79.2047C112.153 79.1953 112.243 79.1828 112.341 79.1609C112.437 79.1391 112.523 79.1141 112.588 79.0766C112.653 79.0423 112.672 79.0017 112.648 78.9517C112.634 78.9361 112.619 78.9236 112.603 78.9143C112.585 78.9049 112.566 78.8955 112.544 78.8924C112.447 78.8924 112.36 78.9111 112.281 78.9486C112.203 78.9861 112.125 79.0298 112.053 79.0829H112.05Z" fill="black"/>
<path d="M121.308 79.23C121.386 79.1894 121.467 79.1581 121.549 79.1394C121.63 79.1207 121.695 79.1145 121.743 79.1238C121.79 79.1332 121.805 79.1519 121.786 79.1832C121.767 79.2144 121.699 79.2613 121.577 79.3206C121.373 79.4111 121.155 79.5392 120.923 79.7078C120.692 79.8764 120.488 80.0669 120.307 80.2793C120.126 80.4916 120.013 80.7164 119.966 80.9538C119.781 81.9781 119.51 82.9836 119.156 83.9642C118.997 84.4264 118.796 84.873 118.552 85.3039C118.446 85.4945 118.321 85.6662 118.174 85.8192C118.086 85.9128 117.98 85.9691 117.855 85.991C117.648 86.0159 117.492 86.0003 117.386 85.9348C117.28 85.8692 117.204 85.7318 117.154 85.5163C117.11 85.2571 117.117 84.9979 117.17 84.7387C117.276 84.1641 117.461 83.6176 117.727 83.093C117.933 82.6714 118.161 82.2623 118.415 81.872C118.665 81.4816 118.949 81.11 119.268 80.7633C119.347 80.6759 119.403 80.5822 119.438 80.4823C119.472 80.3823 119.491 80.2824 119.5 80.1762C119.51 80.0451 119.522 79.9108 119.541 79.7796C119.609 79.23 119.659 78.6741 119.691 78.1152C119.757 76.9378 119.735 75.7605 119.619 74.5832C119.556 73.9586 119.428 73.3465 119.237 72.747C119.153 72.4659 119.024 72.2067 118.853 71.9694C118.806 71.9069 118.753 71.8507 118.702 71.7976C118.565 71.6539 118.434 71.5759 118.309 71.5603C118.184 71.5447 118.043 71.6009 117.889 71.7164C117.373 72.0974 117.057 72.6033 116.948 73.2373C116.911 73.4715 116.785 73.5526 116.573 73.4808C116.472 73.4434 116.419 73.3778 116.413 73.2747C116.407 73.1873 116.417 73.0967 116.438 73.0061C116.585 72.4566 116.866 71.9912 117.285 71.6134C117.47 71.4385 117.676 71.323 117.902 71.2699C118.127 71.2168 118.364 71.2136 118.615 71.2543C118.755 71.2792 118.884 71.3323 118.993 71.4104C119.103 71.4885 119.206 71.579 119.302 71.6852C119.537 71.96 119.709 72.266 119.819 72.6033C119.941 72.9469 120.035 73.2935 120.103 73.6463C120.17 73.9992 120.22 74.3521 120.251 74.7113C120.288 75.2265 120.316 75.7075 120.338 76.1634C120.345 76.3351 120.35 76.5007 120.364 76.6599C120.347 77.653 120.292 78.5648 120.194 79.3924C120.185 79.4986 120.179 79.6048 120.172 79.7078C120.172 79.7296 120.172 79.7515 120.179 79.7734C120.185 79.7952 120.201 79.8077 120.225 79.8139C120.241 79.8202 120.26 79.8202 120.276 79.8139C120.292 79.8077 120.304 79.8046 120.313 79.7983C120.535 79.6453 120.748 79.5204 120.948 79.4236C121.061 79.3705 121.182 79.308 121.318 79.2331L121.308 79.23ZM119.146 82.0124C119.159 81.9656 119.168 81.9125 119.172 81.8594C119.172 81.8376 119.172 81.8126 119.178 81.7876C118.871 82.1749 118.602 82.5776 118.374 82.9961C118.146 83.4146 117.964 83.8612 117.827 84.3296C117.78 84.5014 117.739 84.67 117.711 84.8417C117.683 85.0135 117.676 85.1852 117.692 85.357C117.692 85.382 117.698 85.4069 117.708 85.4289C117.717 85.4507 117.736 85.4632 117.761 85.4694C117.808 85.4788 117.846 85.4632 117.873 85.4226C118.048 85.1728 118.196 84.9073 118.311 84.6231C118.496 84.2015 118.655 83.7706 118.787 83.3365C118.918 82.9025 119.037 82.459 119.143 82.0093L119.146 82.0124Z" fill="black"/>
<path d="M124.795 80.0774C124.98 79.7838 125.089 79.5995 125.126 79.5184C125.161 79.4403 125.189 79.4434 125.208 79.5277C125.227 79.612 125.167 79.8088 125.03 80.1117C124.889 80.4146 124.716 80.6488 124.51 80.8143C124.304 80.9799 124.11 81.0391 123.932 80.9955C123.754 80.9517 123.625 80.8269 123.547 80.6239C123.469 80.4178 123.447 80.1585 123.478 79.8463C123.478 79.84 123.478 79.8275 123.484 79.8057C123.491 79.7525 123.497 79.6745 123.512 79.5715C123.525 79.4684 123.534 79.3622 123.541 79.2498C123.547 79.1374 123.541 79.0468 123.531 78.9749C123.519 78.9031 123.484 78.8782 123.431 78.9C123.303 78.9687 123.178 79.1061 123.059 79.3091C122.937 79.5121 122.828 79.7245 122.728 79.9462C122.627 80.1679 122.558 80.3491 122.518 80.4834C122.502 80.527 122.486 80.5708 122.471 80.6208C122.449 80.6831 122.424 80.7456 122.399 80.8081C122.33 80.9892 122.208 81.0579 122.033 81.0173C121.936 80.9955 121.88 80.9361 121.865 80.8394C121.858 80.7644 121.858 80.6957 121.858 80.627C121.858 80.5832 121.858 80.5426 121.852 80.5083C121.843 79.9742 121.83 79.4372 121.812 78.8969C121.817 78.8344 121.843 78.7908 121.896 78.7688C121.946 78.7439 122.005 78.7314 122.077 78.7314C122.131 78.7314 122.181 78.747 122.227 78.7752C122.274 78.8032 122.302 78.8657 122.315 78.9562C122.321 78.9875 122.321 79.0187 122.321 79.0499C122.327 79.0656 122.327 79.0812 122.327 79.0968C122.337 79.1717 122.343 79.2342 122.343 79.2873C122.343 79.3653 122.349 79.4216 122.359 79.4496C122.368 79.4777 122.393 79.4777 122.428 79.4465C122.462 79.4153 122.518 79.3404 122.599 79.2248C122.737 79.0125 122.906 78.8344 123.109 78.6877C123.294 78.5565 123.497 78.5003 123.719 78.5222C123.91 78.5409 124.038 78.6409 124.1 78.8219C124.126 78.9125 124.141 79.0062 124.141 79.0968C124.141 79.1873 124.135 79.281 124.123 79.3747C124.116 79.4715 124.11 79.5683 124.1 79.6714C124.095 79.7026 124.088 79.7338 124.082 79.765C124.051 80.1085 124.06 80.3397 124.113 80.4552C124.166 80.5708 124.248 80.6113 124.354 80.5708C124.46 80.5301 124.608 80.3646 124.795 80.0711V80.0774Z" fill="black"/>
<path d="M127.178 79.4945C127.178 79.5507 127.063 79.6476 126.828 79.7881C126.593 79.9287 126.421 80.0348 126.312 80.1066C126.202 80.1784 126.147 80.2222 126.147 80.2378C126.168 80.2847 126.19 80.3658 126.215 80.4782C126.24 80.5907 126.25 80.7125 126.243 80.8468C126.237 80.9779 126.193 81.0966 126.114 81.1996C126.037 81.3027 125.902 81.3651 125.718 81.387C125.533 81.4026 125.368 81.3745 125.22 81.3027C125.076 81.2308 124.982 81.1277 124.946 80.9934C124.908 80.8592 124.955 80.703 125.08 80.522C125.164 80.422 125.264 80.3346 125.383 80.2596C125.423 80.2347 125.464 80.2034 125.508 80.1722C125.368 80.0192 125.233 79.86 125.105 79.7006C124.977 79.5414 124.895 79.3946 124.86 79.2697C124.823 79.1229 124.848 78.9855 124.936 78.8543C125.023 78.7231 125.176 78.6482 125.392 78.6264C125.499 78.617 125.599 78.6233 125.689 78.642C125.78 78.6608 125.867 78.7075 125.946 78.7763C125.962 78.7918 125.974 78.8107 125.984 78.8325C125.993 78.8543 125.987 78.8794 125.974 78.9105C125.949 78.9574 125.908 78.9824 125.855 78.9824C125.818 78.9824 125.78 78.9761 125.742 78.9668C125.706 78.9512 125.671 78.9356 125.639 78.9199C125.618 78.9074 125.599 78.8981 125.577 78.8887C125.508 78.8637 125.455 78.8669 125.418 78.8981C125.38 78.9324 125.361 78.9824 125.361 79.0542C125.368 79.176 125.418 79.3072 125.512 79.4477C125.605 79.5882 125.702 79.7163 125.795 79.8318C125.833 79.8724 125.867 79.913 125.893 79.9505C125.918 79.9754 125.99 79.9723 126.102 79.938C126.215 79.9036 126.421 79.8068 126.725 79.6476C127.028 79.4883 127.178 79.4384 127.178 79.4914V79.4945ZM125.565 81.1153C125.634 81.109 125.68 81.0716 125.702 80.9998C125.724 80.928 125.73 80.8498 125.727 80.7624C125.721 80.675 125.715 80.6125 125.711 80.5688C125.702 80.5438 125.687 80.5251 125.661 80.5188C125.636 80.5126 125.615 80.5126 125.593 80.522C125.514 80.5844 125.455 80.6625 125.418 80.7593C125.38 80.8561 125.383 80.9404 125.427 81.0123C125.442 81.0372 125.461 81.0622 125.483 81.081C125.505 81.0997 125.536 81.1121 125.567 81.1184L125.565 81.1153Z" fill="black"/>
<path d="M129.577 79.7295C129.708 79.6014 129.768 79.5702 129.749 79.6327C129.73 79.6952 129.658 79.8107 129.53 79.9794C129.402 80.1479 129.243 80.326 129.055 80.5227C128.867 80.7194 128.664 80.885 128.451 81.0286C128.238 81.1723 128.039 81.2504 127.848 81.2597C127.613 81.2597 127.428 81.191 127.288 81.0536C127.147 80.9162 127.047 80.7319 126.987 80.5071C126.928 80.2791 126.903 80.0356 126.912 79.7701C126.925 79.4735 126.934 79.1799 126.944 78.8832C126.95 78.7333 126.953 78.5896 126.96 78.446C126.972 78.2087 126.981 77.9713 126.984 77.734C126.991 77.6591 126.978 77.5966 126.946 77.5467C126.919 77.4967 126.866 77.4685 126.79 77.4623C126.706 77.4561 126.6 77.4561 126.471 77.4561H126.186C126.078 77.4436 126.003 77.4155 125.965 77.3686C125.927 77.3218 125.955 77.275 126.052 77.225C126.121 77.2 126.2 77.1844 126.296 77.1812C126.39 77.1812 126.484 77.1812 126.574 77.1844C126.631 77.1906 126.684 77.1906 126.725 77.1906C126.866 77.1906 126.953 77.1688 126.984 77.1251C127.016 77.0813 127.034 76.9939 127.041 76.8596C127.05 76.7191 127.056 76.5786 127.063 76.438C127.069 76.3631 127.072 76.2882 127.082 76.2163C127.082 76.107 127.109 76.0071 127.169 75.9166C127.231 75.8322 127.31 75.801 127.406 75.8197C127.491 75.8415 127.538 75.8946 127.547 75.9789C127.553 76.1195 127.557 76.26 127.557 76.4005C127.563 76.4786 127.563 76.5599 127.557 76.6379C127.557 76.7222 127.557 76.8096 127.563 76.9002C127.557 77.0251 127.572 77.1032 127.607 77.1376C127.641 77.1688 127.723 77.1875 127.857 77.1875H128.498C128.595 77.1875 128.88 77.1812 129.355 77.1688C129.831 77.1563 130.087 77.1937 130.125 77.2843C130.162 77.3749 129.862 77.428 129.221 77.4405C128.833 77.4623 128.533 77.4716 128.323 77.4716C128.183 77.4654 128.054 77.4654 127.941 77.4654C127.751 77.4654 127.635 77.4998 127.591 77.5654C127.548 77.631 127.526 77.7653 127.531 77.9619C127.526 78.1338 127.519 78.3399 127.507 78.5803C127.476 79.0768 127.459 79.5827 127.459 80.1012C127.473 80.4572 127.535 80.6882 127.651 80.7912C127.766 80.8975 127.917 80.9162 128.101 80.8506C128.286 80.785 128.486 80.6663 128.701 80.4977C128.917 80.3291 129.13 80.1479 129.343 79.9512C129.389 79.8919 129.442 79.8357 129.509 79.7826C129.53 79.7639 129.549 79.7451 129.571 79.7295H129.577Z" fill="black"/>
<path d="M133.612 79.6099C133.547 79.8129 133.415 80.044 133.218 80.3032C133.022 80.5623 132.777 80.731 132.483 80.806C132.19 80.8809 131.936 80.8716 131.723 80.7747C131.511 80.681 131.392 80.425 131.37 80.0128C131.126 80.4843 130.895 80.7841 130.675 80.9152C130.456 81.0464 130.225 81.0964 129.987 81.0652C129.718 81.0214 129.536 80.9183 129.44 80.7529C129.346 80.5874 129.312 80.3968 129.343 80.1783C129.375 79.9597 129.44 79.7536 129.54 79.5537C129.618 79.4038 129.728 79.2664 129.869 79.1383C130.009 79.0104 130.156 78.9104 130.31 78.8386C130.5 78.7418 130.691 78.698 130.881 78.7011C131.075 78.7074 131.279 78.7698 131.498 78.8917C131.504 78.8979 131.504 78.8917 131.504 78.8761C131.504 78.8541 131.511 78.8261 131.519 78.7949C131.529 78.7636 131.548 78.7355 131.576 78.7167C131.648 78.6637 131.732 78.6387 131.833 78.6387C131.933 78.6387 132.008 78.6887 132.061 78.7854C132.07 78.9135 132.058 79.0759 132.02 79.2726C131.942 79.7036 131.942 80.0159 132.02 80.2063C132.099 80.3969 132.24 80.4843 132.439 80.4718C132.639 80.4593 132.899 80.2594 133.221 79.8785C133.543 79.4974 133.669 79.4038 133.603 79.6068L133.612 79.6099ZM130.063 80.6248C130.172 80.7029 130.3 80.6935 130.444 80.5936C130.588 80.4936 130.725 80.35 130.857 80.1658C130.988 79.9815 131.101 79.7973 131.192 79.6099C131.282 79.4256 131.332 79.2883 131.341 79.1977C131.073 79.054 130.841 79.0291 130.65 79.1227C130.456 79.2164 130.303 79.3726 130.19 79.5881C130.078 79.8035 130.009 80.0128 129.987 80.2158C129.965 80.4187 129.994 80.5561 130.066 80.6248H130.063Z" fill="black"/>
<path d="M138.244 79.8536C138.338 79.5507 138.407 79.404 138.451 79.4164C138.492 79.4289 138.492 79.5195 138.451 79.685C138.41 79.8505 138.357 80.0222 138.292 80.2003C138.228 80.3782 138.103 80.5376 137.919 80.6781C137.769 80.7936 137.597 80.8685 137.396 80.8998C137.106 80.931 136.868 80.8998 136.686 80.8029C136.506 80.7093 136.362 80.575 136.262 80.4033C136.161 80.2315 136.089 80.0442 136.049 79.8443C135.964 80.066 135.858 80.2846 135.727 80.5032C135.595 80.7218 135.432 80.8936 135.238 81.0278C135.041 81.1589 134.807 81.2089 134.535 81.1777C134.247 81.1309 134.025 81.0153 133.869 80.8311C133.71 80.6499 133.593 80.4376 133.518 80.194C133.444 79.9504 133.396 79.7162 133.375 79.4883C133.334 79.1135 133.303 78.6201 133.281 78.0111C133.259 77.4022 133.265 76.7557 133.3 76.0781C133.334 75.4004 133.415 74.7665 133.54 74.1825C133.665 73.5986 133.856 73.1457 134.113 72.8241C134.25 72.6711 134.416 72.5931 134.61 72.5898C134.804 72.5898 134.973 72.6585 135.12 72.8054C135.31 73.0302 135.42 73.2769 135.448 73.5517C135.504 73.992 135.485 74.4667 135.386 74.9788C135.286 75.491 135.148 75.997 134.967 76.4935C134.785 76.9931 134.598 77.4459 134.403 77.855C134.209 78.2641 134.044 78.592 133.907 78.8356C133.912 79.0073 133.931 79.2197 133.969 79.4727C134.006 79.7225 134.066 79.9692 134.147 80.2096C134.228 80.4501 134.341 80.6406 134.482 80.7873C134.648 80.9248 134.826 80.9248 135.017 80.7905C135.207 80.6562 135.389 80.4563 135.561 80.1878C135.733 79.9223 135.871 79.6569 135.971 79.3976C135.933 79.0698 135.905 78.6389 135.886 78.1048C135.868 77.5709 135.877 77.0118 135.911 76.4217C135.945 75.8314 136.021 75.2849 136.133 74.779C136.245 74.2731 136.415 73.8797 136.636 73.5986C136.762 73.4674 136.909 73.3987 137.077 73.3956C137.247 73.3956 137.396 73.4549 137.532 73.583C137.703 73.7765 137.801 73.992 137.828 74.2325C137.891 74.7571 137.837 75.3193 137.672 75.9251C137.506 76.5309 137.3 77.0993 137.062 77.6302C136.821 78.161 136.621 78.5702 136.456 78.8543C136.461 79.0073 136.48 79.1947 136.511 79.4196C136.543 79.6444 136.597 79.8567 136.671 80.0629C136.743 80.269 136.844 80.4376 136.971 80.5656C137.237 80.7405 137.491 80.7405 137.738 80.5656C137.985 80.3907 138.154 80.1534 138.251 79.8505L138.244 79.8536ZM134.003 76.1905C133.988 76.331 133.975 76.5403 133.962 76.8182C133.95 77.0961 133.938 77.3803 133.925 77.677C133.909 77.9924 133.897 78.2453 133.885 78.4296C134.015 78.1954 134.173 77.8613 134.348 77.421C134.523 76.9806 134.682 76.4622 134.829 75.8658C134.973 75.2693 135.067 74.6228 135.108 73.9233C135.082 73.5174 135.017 73.2426 134.916 73.0958C134.816 72.9491 134.707 72.9396 134.588 73.0583C134.47 73.1801 134.375 73.4299 134.303 73.8141C134.194 74.448 134.11 75.0851 134.05 75.7221C134.034 75.8751 134.015 76.0313 134 76.1905H134.003ZM136.537 76.5465C136.527 76.6683 136.515 76.8495 136.502 77.093C136.49 77.3366 136.477 77.5833 136.465 77.8362C136.456 78.1173 136.446 78.3391 136.437 78.5014C136.552 78.2953 136.686 77.9987 136.844 77.6145C137 77.2304 137.144 76.7777 137.271 76.2561C137.403 75.7377 137.484 75.1725 137.522 74.5666C137.5 74.2075 137.444 73.964 137.353 73.8359C137.262 73.7078 137.165 73.6985 137.059 73.8047C136.952 73.9108 136.868 74.1325 136.806 74.4698C136.705 75.0195 136.631 75.5754 136.583 76.1343C136.568 76.2717 136.552 76.4091 136.537 76.5496V76.5465Z" fill="black"/>
<path d="M142.383 79.6099C142.316 79.8129 142.186 80.044 141.988 80.3032C141.791 80.5623 141.547 80.731 141.253 80.806C140.959 80.8809 140.706 80.8716 140.493 80.7747C140.28 80.681 140.162 80.425 140.139 80.0128C139.896 80.4843 139.664 80.7841 139.446 80.9152C139.227 81.0464 138.995 81.0964 138.757 81.0652C138.489 81.0214 138.307 80.9183 138.21 80.7529C138.116 80.5874 138.082 80.3968 138.113 80.1783C138.144 79.9597 138.21 79.7536 138.31 79.5537C138.388 79.4038 138.498 79.2664 138.638 79.1383C138.779 79.0104 138.926 78.9104 139.079 78.8386C139.27 78.7418 139.461 78.698 139.652 78.7011C139.846 78.7074 140.049 78.7698 140.268 78.8917C140.275 78.8979 140.275 78.8917 140.275 78.8761C140.275 78.8541 140.28 78.8261 140.29 78.7949C140.299 78.7636 140.318 78.7355 140.347 78.7167C140.419 78.6637 140.503 78.6387 140.602 78.6387C140.703 78.6387 140.778 78.6887 140.831 78.7854C140.841 78.9135 140.827 79.0759 140.791 79.2726C140.712 79.7036 140.712 80.0159 140.791 80.2063C140.868 80.3969 141.009 80.4843 141.21 80.4718C141.41 80.4593 141.669 80.2594 141.992 79.8785C142.314 79.4974 142.438 79.4038 142.373 79.6068L142.383 79.6099ZM138.829 80.6248C138.939 80.7029 139.067 80.6935 139.211 80.5936C139.355 80.4936 139.492 80.35 139.623 80.1658C139.755 79.9815 139.868 79.7973 139.959 79.6099C140.049 79.4256 140.099 79.2883 140.108 79.1977C139.839 79.054 139.608 79.0291 139.417 79.1227C139.223 79.2164 139.07 79.3726 138.957 79.5881C138.844 79.8035 138.776 80.0128 138.755 80.2158C138.732 80.4187 138.76 80.5561 138.832 80.6248H138.829Z" fill="black"/>
<path d="M144.772 79.7295C144.903 79.6014 144.963 79.5702 144.944 79.6327C144.925 79.6952 144.853 79.8107 144.725 79.9794C144.597 80.1479 144.438 80.326 144.249 80.5227C144.062 80.7194 143.858 80.885 143.646 81.0286C143.433 81.1723 143.233 81.2504 143.042 81.2597C142.808 81.2597 142.623 81.191 142.482 81.0536C142.342 80.9162 142.242 80.7319 142.182 80.5071C142.122 80.2791 142.098 80.0356 142.107 79.7701C142.12 79.4735 142.129 79.1799 142.138 78.8832C142.145 78.7333 142.148 78.5896 142.154 78.446C142.167 78.2087 142.176 77.9713 142.179 77.734C142.186 77.6591 142.173 77.5966 142.141 77.5467C142.113 77.4967 142.06 77.4685 141.985 77.4623C141.901 77.4561 141.794 77.4561 141.666 77.4561H141.381C141.272 77.4436 141.197 77.4155 141.16 77.3686C141.122 77.3218 141.15 77.275 141.247 77.225C141.316 77.2 141.394 77.1844 141.491 77.1812C141.585 77.1812 141.678 77.1812 141.769 77.1844C141.825 77.1906 141.879 77.1906 141.92 77.1906C142.06 77.1906 142.148 77.1688 142.179 77.1251C142.21 77.0813 142.229 76.9939 142.235 76.8596C142.244 76.7191 142.251 76.5786 142.258 76.438C142.263 76.3631 142.266 76.2882 142.276 76.2163C142.276 76.107 142.304 76.0071 142.364 75.9166C142.426 75.8322 142.505 75.801 142.601 75.8197C142.686 75.8415 142.733 75.8946 142.742 75.9789C142.748 76.1195 142.752 76.26 142.752 76.4005C142.757 76.4786 142.757 76.5599 142.752 76.6379C142.752 76.7222 142.752 76.8096 142.757 76.9002C142.752 77.0251 142.767 77.1032 142.801 77.1376C142.836 77.1688 142.917 77.1875 143.052 77.1875H143.693C143.79 77.1875 144.074 77.1812 144.55 77.1688C145.025 77.1563 145.282 77.1937 145.32 77.2843C145.357 77.3749 145.057 77.428 144.416 77.4405C144.028 77.4623 143.728 77.4716 143.518 77.4716C143.377 77.4654 143.249 77.4654 143.136 77.4654C142.945 77.4654 142.829 77.4998 142.786 77.5654C142.742 77.631 142.721 77.7653 142.726 77.9619C142.721 78.1338 142.714 78.3399 142.702 78.5803C142.67 79.0768 142.654 79.5827 142.654 80.1012C142.667 80.4572 142.729 80.6882 142.845 80.7912C142.961 80.8975 143.111 80.9162 143.296 80.8506C143.481 80.785 143.68 80.6663 143.896 80.4977C144.112 80.3291 144.325 80.1479 144.537 79.9512C144.584 79.8919 144.637 79.8357 144.704 79.7826C144.725 79.7639 144.744 79.7451 144.766 79.7295H144.772Z" fill="black"/>
<path d="M146.595 80.0019C146.52 80.1549 146.395 80.3266 146.214 80.514C146.032 80.7013 145.832 80.82 145.604 80.87C145.375 80.92 145.16 80.8419 144.953 80.6357C144.875 80.5452 144.816 80.4391 144.778 80.3204C144.74 80.2017 144.728 80.0831 144.737 79.9675V79.8488C144.737 79.7271 144.744 79.5834 144.753 79.4241C144.762 79.2617 144.788 79.1181 144.825 78.9869C144.862 78.8557 144.922 78.7808 145 78.7527C145.229 78.6965 145.354 78.7745 145.373 78.99C145.373 79.0587 145.373 79.1305 145.366 79.1992C145.359 79.2368 145.359 79.268 145.359 79.2992C145.354 79.3991 145.351 79.5022 145.344 79.6021C145.344 79.6802 145.341 79.7614 145.335 79.8394C145.328 80.1861 145.407 80.3953 145.569 80.4609C145.728 80.5265 145.913 80.4578 146.119 80.2517C146.327 80.0455 146.461 79.8738 146.526 79.7364C146.589 79.599 146.636 79.5709 146.664 79.649C146.692 79.7271 146.67 79.8457 146.595 79.9988V80.0019ZM145.325 78.0126C145.294 78.0376 145.256 78.0563 145.213 78.0625C145.169 78.0688 145.128 78.0657 145.094 78.0532C145.069 78.0314 145.05 78.0032 145.044 77.9689C145.037 77.9345 145.035 77.8939 145.035 77.8439C145.035 77.8346 145.035 77.8252 145.04 77.8159C145.047 77.7721 145.056 77.7284 145.072 77.6847C145.119 77.5691 145.219 77.5161 145.373 77.5255C145.426 77.5317 145.466 77.5535 145.497 77.5911C145.529 77.6285 145.535 77.6691 145.516 77.7159C145.479 77.8346 145.416 77.9314 145.325 78.0126Z" fill="black"/>
<path d="M149.57 78.8276C149.642 78.7714 149.723 78.7402 149.821 78.7402C149.874 78.7402 149.924 78.7558 149.97 78.7839C150.018 78.812 150.045 78.8744 150.058 78.9651C150.064 78.9962 150.064 79.0275 150.064 79.0587C150.071 79.0743 150.071 79.09 150.071 79.1056C150.08 79.1805 150.086 79.243 150.086 79.296C150.086 79.3742 150.092 79.4303 150.102 79.4585C150.111 79.4865 150.136 79.4865 150.171 79.4553C150.205 79.4241 150.261 79.3491 150.342 79.2336C150.48 79.0213 150.649 78.8432 150.852 78.6965C151.037 78.5653 151.24 78.5091 151.462 78.531C151.653 78.5497 151.778 78.6496 151.844 78.8308C151.869 78.9213 151.884 79.0149 151.884 79.1056C151.884 79.1961 151.878 79.2898 151.866 79.3835C151.859 79.4803 151.853 79.5771 151.844 79.6802L151.825 79.7738C151.794 80.1174 151.804 80.3484 151.857 80.464C151.91 80.5796 151.991 80.6201 152.097 80.5796C152.204 80.5389 152.351 80.3735 152.538 80.0798C152.723 79.7863 152.832 79.6021 152.869 79.5209C152.907 79.4397 152.932 79.446 152.955 79.5303C152.976 79.6146 152.914 79.8114 152.776 80.1142C152.638 80.4171 152.463 80.6514 152.257 80.8169C152.051 80.9824 151.857 81.0417 151.678 80.998C151.5 80.9543 151.372 80.8294 151.293 80.6264C151.215 80.4202 151.193 80.1611 151.224 79.8488C151.224 79.8425 151.224 79.8301 151.231 79.8082C151.237 79.7551 151.243 79.6771 151.259 79.574C151.272 79.4709 151.281 79.3647 151.287 79.2523C151.293 79.143 151.287 79.0493 151.277 78.9775C151.268 78.9057 151.231 78.8808 151.178 78.9026C151.049 78.9713 150.924 79.1087 150.805 79.3117C150.684 79.5147 150.574 79.727 150.477 79.9488C150.377 80.1705 150.308 80.3515 150.267 80.4858C150.252 80.5296 150.236 80.5733 150.221 80.6232C150.198 80.6857 150.174 80.7482 150.149 80.8107C150.08 80.9917 149.958 81.0604 149.786 81.0199C149.689 80.998 149.632 80.9387 149.617 80.8418C149.611 80.7669 149.611 80.6982 149.611 80.6295C149.611 80.5858 149.611 80.5452 149.605 80.5109C149.595 80.0924 149.582 79.6708 149.574 79.243C149.526 79.3491 149.461 79.4647 149.376 79.5928C149.054 79.9924 148.804 80.2329 148.629 80.3079C148.45 80.3859 148.319 80.4327 148.231 80.4546C148.143 80.4765 148.088 80.5109 148.059 80.5577C148.035 80.6014 148.003 80.6388 147.965 80.6764L147.956 80.6826C147.809 80.8418 147.637 80.9449 147.434 80.9948C147.231 81.0448 147.043 81.0292 146.862 80.9481C146.68 80.8669 146.551 80.7107 146.471 80.4827C146.414 80.2766 146.407 80.0705 146.455 79.8675C146.496 79.6864 146.561 79.5178 146.652 79.3585C146.761 79.1461 146.905 78.9994 147.083 78.9088C147.262 78.8214 147.462 78.7714 147.684 78.7621C148.016 78.7465 148.225 78.9026 148.31 79.2305C148.363 79.4209 148.375 79.6115 148.35 79.8082C148.344 79.8519 148.337 79.8988 148.328 79.9456C148.316 79.9768 148.306 80.008 148.303 80.0393C148.425 80.0455 148.582 79.9768 148.773 79.8425C148.963 79.7051 149.141 79.4897 149.313 79.193C149.42 79.0025 149.507 78.8776 149.579 78.8183L149.57 78.8276ZM147.303 80.7201C147.474 80.642 147.593 80.5078 147.659 80.3172C147.371 80.1361 147.184 79.8769 147.09 79.5396C146.999 79.6989 146.943 79.8832 146.927 80.0955C146.908 80.3079 146.93 80.4827 146.992 80.6201C147.055 80.7575 147.159 80.7918 147.306 80.7232L147.303 80.7201ZM147.787 79.9425C147.834 79.8738 147.865 79.7925 147.875 79.6926C147.884 79.5959 147.881 79.4959 147.865 79.3991C147.846 79.3023 147.822 79.2242 147.787 79.1712C147.752 79.1149 147.718 79.0993 147.687 79.1212C147.618 79.1774 147.577 79.2617 147.572 79.3709C147.565 79.4803 147.581 79.5865 147.625 79.6958C147.665 79.8051 147.721 79.8863 147.787 79.9456V79.9425Z" fill="black"/>
</g>
</svg>
